<svg width="33" height="32" viewBox="0 0 33 32" fill="none" xmlns="http://www.w3.org/2000/svg">
<path d="M16.0141 31.4634C24.8242 31.4634 31.9662 24.4201 31.9662 15.7317C31.9662 7.04332 24.8242 0 16.0141 0C7.20392 0 0.0618896 7.04332 0.0618896 15.7317C0.0618896 24.4201 7.20392 31.4634 16.0141 31.4634Z" fill="#66BF91"/>
<path d="M19.8337 7.74759C19.8872 7.78381 19.9339 7.82312 19.9774 7.86762C18.3517 7.85779 16.7255 7.85882 15.0998 7.84434C14.2752 7.83709 13.4494 7.83502 12.6248 7.82933C11.7949 7.82364 10.9508 7.77915 10.122 7.83244C10.1215 7.8314 10.1215 7.8314 10.1209 7.83037C10.0785 7.78691 10.0249 7.75121 9.97144 7.71655C10.7893 7.75225 11.6129 7.7269 12.4312 7.72742C13.2611 7.72845 14.0905 7.72949 14.9199 7.73052C16.5566 7.73259 18.1933 7.74397 19.83 7.74397C19.8311 7.74552 19.8326 7.74656 19.8337 7.74759Z" fill="#706F6F"/>
<path d="M20.1426 6.99798C20.2129 7.2194 20.2764 7.70466 20.0362 7.8609C20.0042 7.81331 19.9617 7.77244 19.9124 7.74243C19.9339 7.73829 19.9496 7.72639 19.959 7.71035C19.9758 7.71242 19.9937 7.70622 20.0057 7.68656C20.1463 7.4491 20.1636 7.17543 20.0923 6.9209C20.1012 6.92245 20.1091 6.924 20.1175 6.92555C20.1264 6.94935 20.1353 6.97315 20.1426 6.99798Z" fill="#706F6F"/>
<path d="M16.2329 4.04712C16.4044 4.26388 16.4973 4.536 16.4669 4.82364C16.4443 5.0342 16.3084 5.41496 16.4585 5.60844C16.4165 5.58361 16.3772 5.55567 16.3431 5.52256C16.1925 5.37771 16.2051 5.21527 16.2728 5.03265C16.3572 4.80709 16.3934 4.58411 16.3425 4.34562C16.3195 4.23646 16.2812 4.13714 16.2329 4.04712Z" fill="#706F6F"/>
<path d="M14.9649 3.96896C15.106 3.9912 15.2361 4.04294 15.3059 4.15417C15.1401 4.05742 14.9203 4.04604 14.7698 4.18107C14.6601 4.27936 14.6108 4.44801 14.657 4.58511C14.5898 4.51889 14.5489 4.42887 14.5552 4.32282C14.5683 4.09881 14.7556 4.00879 14.9444 3.95654C14.9492 3.96275 14.956 3.96792 14.9649 3.96896Z" fill="#706F6F"/>
<path d="M20.0194 7.13367C20.0356 7.29042 20.0105 7.45235 19.9323 7.60962C19.9229 7.60444 19.9113 7.60134 19.8982 7.60134C18.2389 7.59461 16.5797 7.60031 14.9204 7.59668C14.091 7.59513 13.2611 7.59306 12.4318 7.59099C11.604 7.58892 10.7704 7.55995 9.94311 7.5941C9.93419 7.59461 9.9258 7.59668 9.91846 7.59979C9.92475 7.46269 9.93157 7.32043 9.94941 7.18074C10.7898 7.21903 11.6396 7.1823 12.4805 7.17712C13.3078 7.17195 14.1351 7.16678 14.9624 7.16109C16.6447 7.15022 18.3271 7.14298 20.0094 7.13522C20.0126 7.13574 20.0157 7.13418 20.0194 7.13367Z" fill="#B2B2B2"/>
<path d="M19.2965 6.18737C19.6411 6.35395 19.9297 6.67884 20.0052 7.04201C18.3239 7.05857 16.6431 7.07512 14.9618 7.08806C14.1345 7.09426 13.3073 7.10099 12.48 7.10771C11.6406 7.11444 10.7924 7.09012 9.9541 7.13979C10.0045 6.77714 10.1309 6.43776 10.5012 6.26083C11.0279 6.00941 11.6863 6.06838 12.2544 6.06321C12.6715 6.05959 13.2973 6.0958 13.6404 5.80816C14.0081 5.50035 13.6955 4.99801 13.7343 4.61053C13.7957 4.00731 14.3271 3.57172 14.9219 3.52412C15.4696 3.48015 16.0645 3.7621 16.2161 4.31461C16.2969 4.60898 16.2056 4.82367 16.1264 5.09941C16.0771 5.26962 16.1038 5.43102 16.2245 5.56553C16.5088 5.88318 17.0303 5.8987 17.4247 5.91836C18.0522 5.94991 18.7158 5.90697 19.2965 6.18737ZM15.7361 4.22459C15.7492 4.2665 15.8069 4.24839 15.8012 4.20701C15.7817 4.07301 15.67 3.93799 15.5462 3.88367C15.5173 3.87074 15.4948 3.90747 15.521 3.92557C15.6359 4.00473 15.6941 4.09526 15.7361 4.22459ZM15.5792 4.20545C15.596 4.22718 15.6422 4.2158 15.6296 4.18424C15.5714 4.04146 15.4282 3.91109 15.2923 3.83918C15.2734 3.82883 15.2498 3.85573 15.2682 3.8697C15.328 3.91574 15.3852 3.96127 15.4366 4.01662C15.4916 4.07457 15.5305 4.14234 15.5792 4.20545ZM14.9802 4.82678C15.2551 4.81902 15.4833 4.59242 15.477 4.31772C15.4717 4.08388 15.2488 3.85677 15.0064 3.88833C14.731 3.82004 14.4545 4.0518 14.4383 4.32341C14.4215 4.61932 14.6932 4.83557 14.9802 4.82678ZM10.6487 6.50191C10.6812 6.48536 10.6576 6.44138 10.6256 6.44707C10.4981 6.46932 10.3927 6.59917 10.3649 6.71712C10.3617 6.73161 10.3827 6.74196 10.39 6.72799C10.4173 6.67626 10.4525 6.62814 10.497 6.58883C10.5422 6.54796 10.5951 6.52933 10.6487 6.50191ZM10.4813 6.45277C10.497 6.42949 10.4666 6.40258 10.4435 6.41552C10.3019 6.49674 10.1996 6.70005 10.1603 6.8506C10.1513 6.88474 10.1996 6.89612 10.2122 6.86508C10.2447 6.78438 10.2788 6.7073 10.3281 6.63539C10.3738 6.56968 10.4362 6.51795 10.4813 6.45277Z" fill="#878787"/>
<path d="M23.0655 26.1991C23.0661 26.2022 23.066 26.2053 23.066 26.2084C21.0731 26.2058 19.0802 26.2436 17.0879 26.2467C15.0729 26.2498 13.0574 26.2425 11.0425 26.2192C9.89786 26.2058 8.75111 26.1748 7.60594 26.1918C7.61538 26.1841 7.61905 26.1696 7.61328 26.1572C7.5881 26.1008 7.51728 26.0604 7.46639 26.0268C7.4601 26.0227 7.45328 26.019 7.44751 26.0149C8.4117 26.0656 9.38114 26.0609 10.3459 26.0744C11.352 26.0878 12.3576 26.0966 13.3633 26.1013C15.3751 26.1111 17.3869 26.1065 19.3987 26.0806C20.5423 26.0661 21.6859 26.0501 22.8289 26.0185C22.83 26.0185 22.8316 26.018 22.8326 26.018C22.8956 26.0873 22.98 26.1525 23.0655 26.1991Z" fill="#432918"/>
<path d="M23.063 26.1152C23.0421 26.0986 23.0216 26.0826 23.0011 26.066C22.9608 26.034 22.924 25.9977 22.8842 25.9651C22.8857 25.9476 22.8805 25.9289 22.8674 25.917C22.7719 25.6087 22.7735 25.2916 22.7745 24.9719C22.7751 24.6465 22.7756 24.32 22.7766 23.9941C22.7777 23.3557 22.7792 22.7178 22.7803 22.0794L22.7887 18.2092C22.7934 15.6562 22.8018 13.1031 22.8076 10.5506C22.8107 9.146 22.848 7.73367 22.8039 6.3291C22.8569 6.39998 22.9156 6.46827 22.9765 6.52466C22.9796 6.52776 22.9833 6.52931 22.9865 6.53086C22.9865 6.53138 22.9859 6.5319 22.9859 6.53242C22.9214 7.39171 22.9524 8.26498 22.945 9.12583C22.9371 10.0053 22.9261 10.8848 22.9251 11.7642C22.9235 13.5185 22.9261 15.2723 22.9408 17.0266C22.9492 18.0189 22.955 19.0121 22.976 20.0044C22.977 20.0473 23.0342 20.053 23.0505 20.0225C22.9996 20.5098 23.0179 21.0101 23.0153 21.499C23.0122 22.0282 23.0122 22.558 23.0148 23.0877C23.019 24.0965 23.0305 25.1064 23.063 26.1152Z" fill="#432918"/>
<path d="M22.7235 6.21524C22.7246 6.21783 22.7262 6.21989 22.7277 6.22196C22.7267 6.22507 22.7251 6.22817 22.7251 6.23231C22.6747 7.53341 22.7088 8.84124 22.702 10.1434C22.6952 11.4197 22.6963 12.6964 22.6942 13.9727C22.6894 16.5527 22.6852 19.1326 22.6795 21.7131C22.6779 22.4467 22.6763 23.1798 22.6747 23.9133C22.6737 24.2662 22.6732 24.6195 22.6721 24.9723C22.6716 25.2879 22.6706 25.6009 22.7566 25.9051C18.7435 25.9589 14.7309 25.992 10.7168 25.9439C9.58105 25.9304 8.44217 25.8823 7.30592 25.9004C7.30697 25.8947 7.30749 25.8885 7.30697 25.8818C7.15169 24.6345 7.19365 23.3717 7.19733 22.1182C7.20152 20.8398 7.20572 19.5615 7.20887 18.2832C7.21516 15.7539 7.22251 13.2241 7.22933 10.6949C7.23143 9.98766 7.233 9.28046 7.23457 8.57326C7.23615 7.85468 7.29175 7.10816 7.21359 6.3932C7.21674 6.39269 7.21988 6.39217 7.22251 6.39165C7.233 6.3901 7.24349 6.38906 7.25346 6.38855C7.25451 6.38803 7.25661 6.38803 7.25765 6.38803C7.26395 6.39527 7.27339 6.40096 7.28651 6.40252C7.75601 6.44908 8.23916 6.42838 8.71076 6.43304C9.1703 6.43769 9.62984 6.44597 10.0894 6.44597C9.97921 6.58876 9.91207 6.75896 9.8722 6.93899C9.86328 6.92761 9.84964 6.91882 9.83075 6.91778C9.39587 6.88571 8.9484 6.89605 8.52138 6.99228C8.5004 6.99694 8.49253 7.01659 8.49463 7.03418C8.49148 7.03781 8.48938 7.04246 8.48781 7.04763C8.33306 7.54117 8.31942 8.07248 8.32624 8.58516C8.33358 9.13716 8.36873 9.68864 8.38499 10.2406C8.41909 11.369 8.42696 12.4978 8.42801 13.6266C8.43063 15.8822 8.42119 18.1383 8.41647 20.3939C8.41384 21.6655 8.41332 22.9376 8.41175 24.2093C8.36401 24.2062 8.36558 24.2775 8.41227 24.2822C8.42066 24.2832 8.42906 24.2838 8.43745 24.2848C8.45581 24.2972 8.48047 24.2993 8.50145 24.291C8.51142 24.292 8.52138 24.2931 8.53135 24.2941C8.60584 24.3008 8.67929 24.3081 8.75378 24.3148C8.7307 24.4534 8.7286 24.5998 8.75273 24.7364C8.75745 24.7633 8.7863 24.7706 8.80833 24.7628C8.80519 24.7773 8.81306 24.7949 8.83456 24.7975C8.87391 24.8021 8.91325 24.8058 8.95312 24.8099C8.9463 24.8896 8.93843 24.9723 8.94578 25.0515C8.94735 25.0686 8.96046 25.0779 8.97305 25.0779L8.9741 25.0913C8.96991 25.0918 8.96623 25.0924 8.96204 25.0924C8.93319 25.0955 8.93214 25.1379 8.96204 25.1368C10.6302 25.0867 12.2932 25.0225 13.9624 25.0204C15.6175 25.0173 17.2725 25.037 18.9276 25.0137C19.8698 25.0008 20.8156 24.9847 21.7562 24.9227C21.7861 24.9206 21.7976 24.8916 21.7908 24.8704C21.7976 24.8658 21.8029 24.8564 21.8008 24.8446C21.6901 24.2294 21.7027 23.6055 21.6922 22.9821C21.6817 22.3743 21.6712 21.7664 21.6602 21.158C21.6382 19.9283 21.6077 18.6991 21.5915 17.4694C21.591 17.4492 21.5768 17.4389 21.5605 17.4373C21.561 16.5728 21.5616 15.7084 21.5658 14.8439C21.5668 14.6804 21.5726 14.5144 21.5747 14.3478C21.5694 14.339 21.5642 14.3292 21.56 14.3193C21.5941 13.9644 21.5726 13.5971 21.5626 13.2422C21.5521 12.8687 21.5516 12.4947 21.5374 12.1212C21.5395 12.1196 21.5416 12.1181 21.5437 12.1165C21.5338 11.922 21.5222 11.7285 21.517 11.5366C21.5039 11.0772 21.495 10.6173 21.4855 10.1573C21.4645 9.20441 21.4525 8.25044 21.4451 7.29699H21.4456C21.4818 7.29596 21.4818 7.24164 21.4456 7.24112C21.399 7.24008 21.3523 7.24215 21.3056 7.24526C21.2925 7.24577 21.2799 7.24629 21.2668 7.24733C21.2636 7.14645 21.261 7.04557 21.2573 6.9452C21.2568 6.92606 21.2563 6.9064 21.2557 6.88726L21.2552 6.88674C21.2552 6.85725 21.2358 6.82777 21.197 6.82777C20.8612 6.82673 20.4856 6.79104 20.1478 6.84329C20.0534 6.63118 19.9013 6.44752 19.7051 6.31612C19.6584 6.27577 19.6096 6.23852 19.5587 6.20386C20.5764 6.33578 21.6413 6.31353 22.6616 6.27111C22.6989 6.26904 22.7193 6.24318 22.7235 6.21524ZM21.9005 14.3054C21.9036 14.2624 21.837 14.2635 21.8333 14.3054C21.8212 14.4502 21.8186 14.5961 21.8123 14.7415C21.8113 14.7699 21.8538 14.7689 21.8569 14.7415C21.8721 14.5961 21.891 14.4512 21.9005 14.3054ZM21.7746 14.4688C21.7767 14.444 21.7357 14.4435 21.7342 14.4688C21.7263 14.6235 21.7184 14.7777 21.7116 14.9324C21.7106 14.9463 21.7321 14.9458 21.7336 14.9324C21.7478 14.7777 21.7614 14.623 21.7746 14.4688ZM20.0366 25.7095C20.077 25.708 20.0775 25.6475 20.0366 25.6464C19.842 25.6423 19.65 25.6397 19.4559 25.6262C19.4323 25.6242 19.4265 25.6635 19.4506 25.6676C19.6421 25.6987 19.8425 25.7173 20.0366 25.7095ZM19.8976 25.8104C19.9333 25.8058 19.9359 25.752 19.8976 25.7535C19.6148 25.7644 19.3468 25.7571 19.0656 25.7339C19.0472 25.7323 19.0441 25.7602 19.0609 25.7644C19.3268 25.8301 19.6269 25.8456 19.8976 25.8104ZM8.25227 16.4321C8.26276 16.2485 8.28637 16.0338 8.25122 15.8527C8.2465 15.83 8.20873 15.83 8.20401 15.8527C8.16939 16.0338 8.19299 16.2485 8.20296 16.4321C8.20506 16.4632 8.2507 16.4632 8.25227 16.4321ZM8.16571 16.1869C8.17568 16.0379 8.19247 15.8713 8.17411 15.7229C8.16939 15.6861 8.1206 15.6861 8.11588 15.7229C8.09752 15.8713 8.11431 16.0374 8.12427 16.1869C8.12585 16.2128 8.16414 16.2128 8.16571 16.1869Z" fill="#683C11"/>
<path d="M21.4887 14.0524C21.495 14.3427 21.4803 14.636 21.4819 14.9247C21.485 15.7017 21.4798 16.4782 21.4787 17.2553C21.4771 18.8342 21.4787 20.4131 21.4798 21.9915C21.4803 22.4416 21.4808 22.8916 21.4803 23.3412C21.4792 23.5668 21.4698 23.796 21.4667 24.0257L21.4131 24.0246C21.41 23.9993 21.4084 23.9734 21.4074 23.9475C21.4079 23.9429 21.4079 23.9372 21.4084 23.9325C21.4084 23.9305 21.4074 23.9294 21.4069 23.9279C21.4016 23.7701 21.4194 23.604 21.4184 23.4892C21.4152 23.1907 21.4126 22.8922 21.4095 22.5931C21.4032 22.023 21.3974 21.4524 21.3922 20.8823C21.3811 19.7421 21.3712 18.6019 21.3612 17.4617C21.3423 15.2092 21.3213 12.9567 21.303 10.7042C21.2941 9.5666 21.3019 8.4269 21.2694 7.28979C21.281 7.29083 21.2925 7.29083 21.304 7.29135C21.3229 7.29238 21.3413 7.29342 21.3602 7.29445C21.3602 7.29497 21.3602 7.29497 21.3602 7.29549C21.357 8.26135 21.3743 9.22722 21.3937 10.1926C21.4027 10.6535 21.41 11.1145 21.4242 11.5754C21.4305 11.7911 21.432 12.0115 21.442 12.2314C21.4483 12.2154 21.4567 12.2009 21.4667 12.1874C21.4651 12.5516 21.4745 12.9158 21.4766 13.2806C21.4777 13.5356 21.4735 13.7958 21.4887 14.0524Z" fill="#F6F6F6"/>
<path d="M21.6404 24.0246C21.6472 24.3009 21.6582 24.5838 21.7526 24.8466C20.0865 24.9154 18.4231 24.9434 16.7549 24.9398C15.1003 24.9361 13.4447 24.9118 11.7902 24.9527C10.8533 24.9755 9.9085 24.9936 8.97578 25.0888L8.97473 25.0753C8.98785 25.0753 9.00044 25.0665 9.00201 25.0489C9.00935 24.9713 9.00149 24.8901 8.99519 24.8115C9.76161 24.8829 10.5522 24.8451 11.3196 24.8523C12.1338 24.8596 12.948 24.8642 13.7621 24.8653C15.4046 24.8679 17.0466 24.857 18.6885 24.8332C19.627 24.8192 20.565 24.8047 21.5029 24.7784C21.5554 24.7768 21.5664 24.7142 21.537 24.6873C21.5375 24.6847 21.5375 24.6826 21.5381 24.6806C21.5806 24.2786 21.5491 23.8632 21.5491 23.4597C21.5491 23.0489 21.5501 22.6386 21.5517 22.2279C21.5543 21.41 21.557 20.591 21.5596 19.7731C21.5601 19.649 21.5601 19.5243 21.5606 19.4006C21.5701 20.0126 21.579 20.6247 21.5905 21.2367C21.6021 21.8585 21.6131 22.4798 21.6251 23.1017C21.6299 23.41 21.633 23.7173 21.6404 24.0246Z" fill="#F6F6F6"/>
<path d="M21.4131 24.0251L21.4666 24.0262C21.4635 24.2445 21.4656 24.4633 21.4876 24.6775C18.2084 24.7386 14.9303 24.7789 11.6505 24.752C11.1816 24.7484 10.7121 24.7432 10.2431 24.7375C9.77619 24.7318 9.30144 24.7034 8.8356 24.7406C8.83455 24.7411 8.83403 24.7417 8.83298 24.7417C8.83508 24.737 8.83613 24.7313 8.83613 24.7251C8.82773 24.5896 8.81514 24.4545 8.80518 24.319C12.0046 24.6009 15.2335 24.3925 18.4403 24.3821C19.3976 24.379 20.3545 24.3935 21.3113 24.424V24.4235V24.3888C21.3281 24.4085 21.368 24.4023 21.3685 24.3692C21.369 24.3604 21.369 24.3506 21.3696 24.3412C21.3811 24.3387 21.3916 24.3304 21.3921 24.3149C21.3932 24.2217 21.3968 24.1286 21.4026 24.036C21.4063 24.0319 21.4094 24.0283 21.4131 24.0251Z" fill="#F6F6F6"/>
<path d="M11.0415 21.6076C10.808 21.6174 10.5746 21.6278 10.3417 21.6381C10.3726 21.3877 10.4051 21.1089 10.3606 20.8611C10.5935 20.8756 10.8274 20.8797 11.0604 20.8968C11.042 21.1332 11.0368 21.3696 11.0415 21.6076Z" fill="#F6F6F6"/>
<path d="M10.9839 19.0556C10.9739 19.293 10.9613 19.5305 10.9466 19.768C10.7557 19.7493 10.5663 19.7468 10.3748 19.7592C10.3638 19.5233 10.3549 19.2868 10.3402 19.0504C10.3397 19.0406 10.337 19.0318 10.3334 19.0245L10.3874 19.0178C10.3932 19.0245 10.4016 19.0287 10.4131 19.0297C10.602 19.0473 10.7934 19.0504 10.9839 19.0556Z" fill="#F6F6F6"/>
<path d="M11.0437 17.1451C11.0427 17.3826 11.0427 17.6211 11.0427 17.8585C10.9451 17.8554 10.848 17.8523 10.751 17.8492C10.6975 17.8471 10.644 17.8456 10.591 17.844C10.5663 17.843 10.4168 17.8523 10.3985 17.8373C10.3597 17.8063 10.389 17.5693 10.3896 17.5197C10.3917 17.3929 10.4016 17.2667 10.4027 17.1394C10.4027 17.1291 10.4006 17.1203 10.3974 17.113C10.6104 17.1405 10.8286 17.143 11.0437 17.1451Z" fill="#F6F6F6"/>
<path d="M10.9979 15.3696C11.0567 15.411 11.0205 15.6593 11.0194 15.7291C11.0184 15.844 11.0179 15.9588 11.0168 16.0732C10.8175 16.0664 10.6181 16.0721 10.4193 16.0851C10.4198 15.8466 10.4235 15.6071 10.4151 15.3686C10.4146 15.3598 10.413 15.353 10.4104 15.3463C10.4754 15.3629 10.541 15.3598 10.6134 15.3618C10.6774 15.3634 10.7414 15.3655 10.8054 15.3665C10.8332 15.368 10.9764 15.3546 10.9979 15.3696Z" fill="#F6F6F6"/>
<path d="M10.9681 13.8362C10.9723 13.9531 10.9765 14.07 10.9812 14.1869C10.764 14.2056 10.5474 14.2154 10.3302 14.2164C10.3764 13.9748 10.3832 13.7115 10.3013 13.4787C10.2987 13.4715 10.2951 13.4653 10.2914 13.4601C10.2945 13.4611 10.2982 13.4627 10.3024 13.4632C10.4189 13.472 10.5353 13.4777 10.6523 13.4808C10.7079 13.4823 10.8522 13.4627 10.9246 13.4839C10.838 13.6246 10.7514 13.7658 10.6665 13.9071C10.6156 13.8181 10.5615 13.7332 10.4871 13.6598C10.4687 13.6417 10.4341 13.666 10.4503 13.6877C10.5232 13.7886 10.5899 13.8879 10.6213 14.01C10.6308 14.0493 10.6843 14.0524 10.7053 14.0209C10.796 13.8791 10.8857 13.7363 10.9749 13.5936C10.9765 13.6825 10.967 13.8031 10.9681 13.8362Z" fill="#F6F6F6"/>
<path d="M10.8533 12.2826C10.7704 12.2832 10.6875 12.2837 10.6046 12.2842C10.5107 12.2847 10.3512 12.3261 10.3302 12.2226C10.3114 12.1326 10.3434 12.0064 10.3491 11.9143C10.3559 11.801 10.3638 11.6882 10.368 11.5749C10.3691 11.562 10.3654 11.5511 10.3596 11.5428C10.5102 11.5563 10.6634 11.5537 10.815 11.5537C10.7347 11.681 10.6712 11.8201 10.6335 11.9624C10.5904 11.8957 10.538 11.8382 10.4687 11.7896C10.4462 11.7741 10.421 11.8082 10.4399 11.8263C10.5196 11.9045 10.5794 11.9872 10.6093 12.0954C10.6209 12.1378 10.6807 12.1352 10.6938 12.0954C10.7426 11.9459 10.7982 11.8093 10.869 11.6789C10.8522 11.8796 10.8464 12.0809 10.8533 12.2826Z" fill="#F6F6F6"/>
<path d="M10.9366 10.0374C10.9377 10.236 10.9387 10.4337 10.9419 10.6318C10.7226 10.5842 10.4698 10.5889 10.2489 10.6158C10.2799 10.3747 10.2736 10.13 10.2741 9.88684C10.4766 9.88788 10.678 9.89615 10.8795 9.91271C10.8569 9.95099 10.8349 9.98927 10.8134 10.0276C10.7578 10.1264 10.6953 10.2278 10.656 10.3354C10.5915 10.2836 10.5269 10.2324 10.4566 10.189C10.4357 10.176 10.4178 10.204 10.432 10.2205C10.4976 10.2976 10.5747 10.3643 10.6476 10.4331C10.6686 10.4533 10.6974 10.4466 10.7132 10.4249C10.7903 10.3199 10.8433 10.1952 10.9088 10.0824C10.9183 10.0674 10.9277 10.0524 10.9366 10.0374Z" fill="#F6F6F6"/>
<path d="M21.3202 23.7742C21.3213 23.8528 21.3181 23.9356 21.3223 24.0168C21.3014 24.1079 21.2998 24.2088 21.3019 24.3045C17.966 24.1353 14.6228 24.3836 11.2854 24.3231C10.3705 24.3065 9.45355 24.2714 8.54024 24.2155C8.54286 21.9604 8.54286 19.7059 8.54339 17.4503C8.54444 15.235 8.56595 13.0182 8.51401 10.8035C8.48463 9.55467 8.35244 8.3053 8.55913 7.06525C8.55965 7.06421 8.55913 7.06421 8.55913 7.06266C8.98457 7.04042 9.40476 7.01351 9.83125 7.028C9.84069 7.028 9.84909 7.02696 9.85591 7.02334C9.82023 7.23079 9.81656 7.44652 9.82338 7.64518C9.82443 7.6726 9.84384 7.68657 9.8643 7.68812C9.86535 7.69122 9.86692 7.69329 9.86902 7.69536C9.93932 7.75227 10.0122 7.82315 10.093 7.86453C10.0972 7.8666 10.1019 7.86712 10.1056 7.86712C10.1067 7.86712 10.1072 7.86764 10.1082 7.86764C10.9271 7.93075 11.7628 7.89609 12.5832 7.89971C13.4221 7.90333 14.2609 7.91109 15.0997 7.91368C16.7637 7.91834 18.4277 7.93851 20.0917 7.94731C20.1399 7.94731 20.1425 7.88005 20.1021 7.86971C20.301 7.74451 20.2721 7.29805 20.2364 7.1175C20.2244 7.05542 20.2076 6.99489 20.1866 6.93591C20.5108 6.97937 20.8665 6.94678 21.1875 6.94626C21.1849 7.05076 21.1833 7.15526 21.1817 7.26028C21.1796 7.26494 21.1796 7.27115 21.1817 7.2758C21.1461 9.475 21.2095 11.6794 21.2263 13.8786C21.2442 16.1999 21.2625 18.5212 21.2867 20.8425C21.2935 21.4943 21.2998 22.1456 21.3076 22.797C21.3113 23.1234 21.3155 23.4488 21.3202 23.7742ZM21.0385 9.09631C21.0396 9.05803 20.984 9.06062 20.9798 9.09631C20.9609 9.24013 20.9598 9.38809 20.9562 9.53243C20.9551 9.55829 20.9929 9.55674 20.9955 9.53243C21.0144 9.38809 21.0359 9.24117 21.0385 9.09631ZM20.8822 9.7554C20.9147 9.58778 20.9467 9.39482 20.921 9.22461C20.9163 9.19098 20.8696 9.20392 20.8665 9.23185C20.8465 9.40206 20.8555 9.57744 20.8392 9.74919C20.8366 9.77402 20.8775 9.7792 20.8822 9.7554ZM19.3966 19.8497C19.4464 19.8274 19.4191 19.7519 19.3698 19.7524C16.9111 19.7591 14.446 19.7954 11.9889 19.8843C11.9543 19.8854 11.9543 19.9376 11.9889 19.9376C14.3862 19.9557 16.7894 19.9226 19.1862 19.8611C19.1846 19.8926 19.2208 19.9262 19.2602 19.9092C19.3058 19.8895 19.3515 19.8693 19.3966 19.8497ZM19.3724 21.6795C19.4349 21.6759 19.4349 21.5879 19.3724 21.5838C18.7713 21.5429 18.1565 21.5729 17.5537 21.576C16.9336 21.5791 16.3136 21.5848 15.6935 21.5957C14.4717 21.6164 13.2332 21.6128 12.0162 21.7255C11.9873 21.7281 11.9857 21.7706 12.0162 21.7716C13.2395 21.7964 14.4697 21.7276 15.6935 21.71C16.2999 21.7012 16.9058 21.694 17.5123 21.6898C18.1302 21.6857 18.7566 21.7162 19.3724 21.6795ZM19.2612 17.9619C19.3326 17.9583 19.3336 17.8517 19.2612 17.8517C18.04 17.8548 16.8188 17.8936 15.597 17.8936C14.3758 17.8936 13.154 17.8538 11.9327 17.8709C11.8939 17.8714 11.895 17.9267 11.9327 17.9288C13.1498 18.0116 14.3773 18.0074 15.597 18.01C16.8167 18.0121 18.0426 18.0204 19.2612 17.9619ZM19.0131 12.3897C19.0949 12.3886 19.0949 12.265 19.0131 12.2645C17.773 12.2557 16.5329 12.2743 15.2933 12.281C14.0563 12.2878 12.8088 12.2536 11.5739 12.324C11.5304 12.3266 11.5299 12.3886 11.5739 12.3907C12.8093 12.4507 14.0568 12.4068 15.2933 12.4036C16.5329 12.4 17.7735 12.4088 19.0131 12.3897ZM18.9858 16.0659C19.0661 16.0659 19.0661 15.9428 18.9858 15.9417C17.7693 15.935 16.5523 15.9376 15.3352 15.9546C14.1208 15.9712 12.8975 15.9681 11.6851 16.0545C11.6505 16.0576 11.6495 16.1083 11.6851 16.1088C12.9006 16.1357 14.1198 16.0886 15.3352 16.0793C16.5523 16.07 17.7688 16.0643 18.9858 16.0659ZM18.957 14.1486C19.0294 14.1414 19.0325 14.0374 18.957 14.0353C18.3563 14.0214 17.7473 14.0736 17.1461 14.0902C16.5287 14.1067 15.9112 14.1191 15.2938 14.1269C14.0731 14.1419 12.8487 14.1103 11.6295 14.1502C11.5949 14.1512 11.5949 14.2004 11.6295 14.2029C12.8455 14.2862 14.0752 14.2624 15.2938 14.2495C15.8976 14.2428 16.5014 14.2324 17.1047 14.2174C17.7184 14.2019 18.3464 14.2128 18.957 14.1486ZM18.819 10.5397C18.8956 10.5386 18.8961 10.4217 18.819 10.4222C17.6345 10.431 16.45 10.4476 15.2655 10.4621C14.6874 10.4688 14.1087 10.4766 13.5301 10.4833C12.9263 10.4905 12.3141 10.4761 11.7124 10.5319C11.6757 10.5355 11.6752 10.5857 11.7124 10.5883C12.3015 10.6302 12.899 10.6028 13.4892 10.5971C14.0815 10.5909 14.6737 10.5847 15.266 10.579C16.45 10.5676 17.6345 10.5578 18.819 10.5397ZM11.512 24.1482C11.5467 24.157 11.5561 24.1022 11.5188 24.0986C11.4092 24.0887 11.3001 24.0686 11.1915 24.0525C11.17 24.0494 11.1606 24.081 11.1826 24.0851C11.2922 24.1048 11.4034 24.1218 11.512 24.1482ZM11.4837 24.2589C11.5167 24.2641 11.532 24.216 11.4979 24.2082C11.2529 24.1524 10.9953 24.1348 10.7446 24.1312C10.7199 24.1306 10.7199 24.1674 10.7446 24.1689C10.9943 24.1819 11.2371 24.2201 11.4837 24.2589ZM11.1847 20.8409C11.1873 20.8073 11.1553 20.784 11.1244 20.7814C10.8668 20.7633 10.5992 20.7566 10.3422 20.7902C10.3165 20.7535 10.2514 20.7757 10.2462 20.8233C10.2142 21.1135 10.2431 21.41 10.2074 21.7033C10.2037 21.7354 10.2399 21.7669 10.2703 21.7654C10.5484 21.7524 10.8264 21.7395 11.1039 21.7266C11.1364 21.725 11.1668 21.7002 11.1658 21.6655C11.1574 21.3903 11.1648 21.1156 11.1847 20.8409ZM11.1642 17.921C11.1637 17.6432 11.1637 17.3659 11.1616 17.0881C11.1611 17.0571 11.1349 17.0302 11.1029 17.0302C10.8647 17.0312 10.6223 17.0312 10.3852 17.0607C10.3684 17.0628 10.3606 17.0742 10.36 17.0861C10.3286 17.0804 10.2908 17.0995 10.2855 17.1404C10.264 17.3075 10.264 17.4787 10.2656 17.6474C10.2667 17.7224 10.241 17.8709 10.3065 17.9298C10.3731 17.9893 10.5116 17.9635 10.5909 17.9661C10.7619 17.9712 10.9324 17.9769 11.1034 17.9821C11.1359 17.9816 11.1642 17.9526 11.1642 17.921ZM11.1448 13.3193C11.1794 13.264 11.0908 13.2128 11.0567 13.2686C11.0341 13.3054 11.011 13.3426 10.9885 13.3793C10.9324 13.3633 10.8615 13.3757 10.8112 13.3773C10.6417 13.3819 10.4712 13.3881 10.3023 13.4016C10.2756 13.4037 10.2672 13.4295 10.2766 13.4466C10.2404 13.4259 10.1869 13.4549 10.1943 13.5076C10.2315 13.7694 10.2541 13.9991 10.1953 14.2614C10.1864 14.2997 10.2126 14.338 10.2541 14.338C10.5179 14.3385 10.7802 14.3256 11.043 14.3002C11.074 14.2971 11.1044 14.2759 11.1034 14.2407C11.096 14.0607 11.0882 13.8806 11.0808 13.7006C11.0777 13.6339 11.096 13.5201 11.0656 13.4471C11.0918 13.4052 11.1186 13.3623 11.1448 13.3193ZM11.1328 15.5951C11.1333 15.5134 11.1689 15.3551 11.0955 15.2904C11.0226 15.2257 10.8605 15.2599 10.7739 15.2604C10.6349 15.2614 10.477 15.2381 10.3485 15.295C10.3417 15.2981 10.3396 15.3069 10.3411 15.3142C10.3186 15.3194 10.2987 15.3375 10.2981 15.368C10.2897 15.6277 10.2966 15.8889 10.2971 16.1492C10.2971 16.1797 10.3254 16.2123 10.3585 16.2097C10.5971 16.1911 10.8348 16.1854 11.074 16.1875C11.1049 16.188 11.1317 16.1611 11.1317 16.1305C11.1317 15.9526 11.1322 15.7741 11.1328 15.5951ZM11.1139 9.74454C11.138 9.69798 11.0745 9.64003 11.0357 9.68504C11.0016 9.72384 10.9717 9.76626 10.9434 9.80972C10.7031 9.78799 10.4629 9.77816 10.221 9.78127C10.1922 9.78178 10.1675 9.80506 10.1675 9.83403C10.1675 10.0968 10.1554 10.3622 10.1885 10.623C10.1895 10.6276 10.1911 10.6323 10.1932 10.6359C10.1822 10.6545 10.1901 10.6804 10.2194 10.6825C10.4644 10.699 10.721 10.7285 10.9659 10.7254C10.9848 10.7254 10.9985 10.714 11.0048 10.699C11.0273 10.6959 11.0478 10.6788 11.0478 10.6494C11.0488 10.3886 11.0462 10.1279 11.0451 9.86663C11.0451 9.86611 11.0446 9.86559 11.0446 9.86508C11.0688 9.82628 11.0929 9.78644 11.1139 9.74454ZM11.1076 18.9976C11.1086 18.9656 11.0787 18.9371 11.0472 18.9381C10.8364 18.9428 10.6234 18.9428 10.413 18.9604C10.3789 18.9635 10.3705 18.9987 10.3873 19.0178L10.3333 19.0245C10.3065 18.9728 10.2132 18.9806 10.2152 19.0504C10.2242 19.3085 10.2394 19.5662 10.252 19.8243C10.2535 19.8554 10.2792 19.889 10.3144 19.8859C10.5452 19.8662 10.7734 19.8693 11.0037 19.8952C11.0383 19.8988 11.064 19.8636 11.0656 19.8336C11.0834 19.5553 11.0971 19.2765 11.1076 18.9976ZM11.0404 11.415C11.075 11.37 10.9985 11.3121 10.9612 11.3545C10.9371 11.3824 10.914 11.4119 10.8909 11.4414C10.6832 11.4367 10.4676 11.429 10.2646 11.4714C10.2357 11.4771 10.2336 11.5273 10.2646 11.5314C10.2677 11.5319 10.2714 11.5325 10.2751 11.5325C10.2625 11.5412 10.2541 11.5552 10.2525 11.5744C10.2394 11.7389 10.232 11.9039 10.2226 12.0679C10.2179 12.1465 10.1806 12.2821 10.2336 12.3498C10.2792 12.4088 10.3548 12.3985 10.4209 12.399C10.5846 12.4005 10.7488 12.3964 10.9124 12.3949C10.9423 12.3949 10.9712 12.3695 10.9696 12.3385C10.9565 12.0575 10.9665 11.7782 10.999 11.4988C11 11.4911 10.9985 11.4838 10.9958 11.4771C11.0095 11.4559 11.0247 11.4352 11.0404 11.415ZM10.7996 18.2304C10.8332 18.2304 10.8332 18.1787 10.7996 18.1787C10.7661 18.1787 10.7661 18.2304 10.7996 18.2304ZM10.7996 18.1161C10.8264 18.115 10.8264 18.0768 10.7996 18.0757C10.6438 18.068 10.4854 18.0752 10.3296 18.0773C10.305 18.0778 10.305 18.114 10.3296 18.1145C10.4859 18.1166 10.6438 18.1238 10.7996 18.1161Z" fill="#F6F6F6"/>
<path d="M23.1653 26.2026C23.1621 26.212 23.1585 26.2213 23.1548 26.2311C23.1427 26.2554 23.1312 26.2808 23.1186 26.3051C23.1186 26.3056 23.1181 26.3061 23.1176 26.3071C21.9918 26.3335 20.8639 26.3315 19.7376 26.334C17.7222 26.3392 15.7072 26.3408 13.6918 26.3294C11.6517 26.3185 9.60209 26.3439 7.56355 26.244C7.52997 26.2425 7.52945 26.1928 7.56355 26.1923C7.56669 26.1923 7.56984 26.1923 7.57246 26.1923C7.51948 26.1716 7.47646 26.123 7.43397 26.0868C7.40302 26.0604 7.3705 26.0345 7.33797 26.0097C7.32119 26.0086 7.30387 26.0081 7.28709 26.0066C7.24669 26.0045 7.23043 25.9698 7.23673 25.9404C7.20892 25.9352 7.18322 25.9155 7.1785 25.8814C7.00329 24.4742 7.06676 23.0428 7.07253 21.6284C7.08197 19.0991 7.09247 16.5693 7.10243 14.0401C7.10715 12.7617 7.1124 11.4834 7.11765 10.205C7.12027 9.57957 7.12289 8.95411 7.12551 8.32813C7.12866 7.68663 7.08617 7.02289 7.16119 6.38553C7.1507 6.37518 7.15227 6.35656 7.16538 6.34932C7.18532 6.33845 7.20263 6.34363 7.22361 6.34673C7.23306 6.34776 7.2425 6.3488 7.25194 6.34983L7.25509 6.38863C7.2446 6.38915 7.2341 6.38967 7.22414 6.39174C7.22099 6.39277 7.21837 6.39277 7.21522 6.39329C7.29338 7.10825 7.23778 7.85477 7.2362 8.57335C7.23463 9.28003 7.23306 9.98775 7.23096 10.6949C7.22414 13.2242 7.21679 15.754 7.2105 18.2832C7.20735 19.5616 7.20315 20.8399 7.19896 22.1183C7.19529 23.3718 7.15332 24.6346 7.3086 25.8819C7.30965 25.8886 7.30912 25.8948 7.30755 25.9005C8.44328 25.8824 9.58216 25.9305 10.7184 25.944C14.732 25.9921 18.7446 25.9585 22.7582 25.9052C22.6722 25.601 22.6732 25.288 22.6738 24.9724C22.6748 24.6196 22.6753 24.2663 22.6764 23.9134C22.6774 23.1798 22.6795 22.4468 22.6811 21.7132C22.6863 19.1332 22.6905 16.5533 22.6958 13.9728C22.6979 12.6965 22.6968 11.4197 22.7037 10.1435C22.7105 8.84133 22.6764 7.53402 22.7267 6.2324C22.7267 6.22826 22.7278 6.22567 22.7294 6.22205C22.7278 6.21998 22.7262 6.21791 22.7252 6.21533L22.7624 6.18066C22.7703 6.18791 22.7781 6.19515 22.7855 6.20291C22.7892 6.2055 22.7923 6.20808 22.7944 6.2117C22.8799 6.295 22.9644 6.3907 23.0263 6.48693C23.0352 6.50038 23.031 6.51331 23.0221 6.52262C23.0237 6.52521 23.0252 6.52831 23.0252 6.53245H22.9864C22.9864 6.53194 22.9869 6.53142 22.9869 6.5309C22.9838 6.52987 22.9801 6.5278 22.977 6.52469C22.9161 6.4683 22.8574 6.40001 22.8044 6.32914C22.849 7.73371 22.8112 9.14552 22.808 10.5506C22.8023 13.1032 22.7944 15.6562 22.7892 18.2093L22.7808 22.0795C22.7797 22.7179 22.7781 23.3557 22.7771 23.9941C22.776 24.3201 22.7755 24.646 22.775 24.9719C22.7739 25.2916 22.7724 25.6087 22.8679 25.9171C22.881 25.929 22.8867 25.9476 22.8846 25.9652C22.9245 25.9978 22.9612 26.0345 23.0016 26.0661C23.0221 26.0826 23.0425 26.0987 23.0635 26.1152C23.031 25.1064 23.0195 24.0966 23.0147 23.0878C23.0121 22.558 23.0121 22.0283 23.0153 21.499C23.0179 21.0101 22.9995 20.5099 23.0504 20.0225L23.0787 20.0199C23.1186 20.5228 23.0892 21.0355 23.0877 21.5399C23.0866 22.0557 23.0887 22.5715 23.0924 23.0878C23.1008 24.1193 23.1244 25.1514 23.1443 26.183C23.1511 26.1897 23.1579 26.1964 23.1653 26.2026ZM23.0661 26.2083C23.0661 26.2052 23.0661 26.2016 23.0656 26.199C22.9801 26.1525 22.8962 26.0868 22.8327 26.0174C22.8317 26.0174 22.8301 26.018 22.829 26.018C21.686 26.0495 20.5424 26.0656 19.3988 26.08C17.387 26.1064 15.3752 26.1106 13.3634 26.1007C12.3577 26.0961 11.3521 26.0873 10.346 26.0738C9.38124 26.0609 8.4118 26.065 7.44761 26.0143C7.45391 26.0185 7.46073 26.0221 7.4665 26.0262C7.51686 26.0604 7.5882 26.1002 7.61338 26.1566C7.61863 26.169 7.61548 26.1835 7.60604 26.1913C8.75069 26.1742 9.89743 26.2052 11.0426 26.2187C13.0575 26.242 15.073 26.2492 17.0879 26.2461C19.0803 26.2435 21.0732 26.2063 23.0661 26.2083Z" fill="#1D1D1B"/>
<path d="M23.0724 19.9505C23.0745 19.9733 23.0766 19.9966 23.0782 20.0198L23.0498 20.0224C23.0341 20.053 22.9769 20.0473 22.9754 20.0043C22.9544 19.0121 22.9486 18.0193 22.9402 17.0265C22.9255 15.2722 22.9229 13.5185 22.9245 11.7642C22.9255 10.8852 22.9365 10.0057 22.9444 9.12576C22.9518 8.26439 22.9208 7.39113 22.9853 6.53235H23.0241C23.0766 7.49822 23.0194 8.47805 23.0126 9.44496C22.9879 12.9577 23.0262 16.4688 23.0535 19.981C23.0546 19.9707 23.0551 19.9604 23.0567 19.9505C23.0582 19.9412 23.0714 19.9412 23.0724 19.9505Z" fill="#1D1D1B"/>
<path d="M22.7608 6.18053L22.7236 6.21519C22.7194 6.24313 22.6989 6.269 22.6628 6.27055C21.6424 6.31297 20.578 6.33573 19.5598 6.20329C19.6107 6.23744 19.66 6.27469 19.7062 6.31556C19.9024 6.44696 20.054 6.63113 20.1489 6.84272C20.4868 6.79047 20.8618 6.82617 21.1981 6.8272C21.2369 6.8272 21.2563 6.85669 21.2563 6.88618L21.2569 6.8867C21.2579 6.90584 21.2579 6.9255 21.2584 6.94464L21.1881 6.94671C20.8671 6.94774 20.5114 6.97982 20.1872 6.93636C20.2082 6.99534 20.225 7.05587 20.2371 7.11795C20.2727 7.29901 20.3016 7.74496 20.1028 7.87016C20.1432 7.88102 20.1405 7.94776 20.0923 7.94776C18.4283 7.93896 16.7648 7.91878 15.1003 7.91413C14.2615 7.91154 13.4227 7.90378 12.5839 7.90016C11.7629 7.89654 10.9277 7.93068 10.1089 7.86809C10.1078 7.86809 10.1073 7.86757 10.1062 7.86757C10.1026 7.86757 10.0978 7.86705 10.0936 7.86498C10.0129 7.82308 9.93994 7.75272 9.86964 7.69581C9.86702 7.69374 9.86545 7.69116 9.86492 7.68857C9.84394 7.68702 9.82453 7.67305 9.824 7.64563C9.81718 7.44697 9.82086 7.23124 9.85653 7.02379C9.84971 7.0269 9.84184 7.02845 9.83187 7.02845C9.40486 7.01396 8.98519 7.04086 8.55975 7.06311L8.48945 7.04655C8.49103 7.04138 8.49365 7.03672 8.49627 7.0331C8.49365 7.015 8.50152 6.99534 8.52303 6.9912C8.95004 6.89497 9.39699 6.88463 9.8324 6.9167C9.85128 6.91774 9.86492 6.92653 9.87384 6.93791C9.91423 6.75788 9.98138 6.58768 10.091 6.44489C9.63148 6.44541 9.17194 6.43661 8.7124 6.43196C8.24132 6.4273 7.75766 6.44851 7.28815 6.40143C7.27504 6.4004 7.26559 6.39471 7.2593 6.38695C7.25825 6.38695 7.25615 6.38695 7.2551 6.38747L7.25195 6.34867C7.25667 6.33573 7.26874 6.32487 7.28763 6.32332C7.75766 6.28503 8.24028 6.31452 8.71188 6.31866C9.18663 6.3228 9.66191 6.32228 10.1361 6.33159C10.1534 6.33211 10.1671 6.33832 10.176 6.34815C10.2206 6.30469 10.2699 6.26486 10.3255 6.22864C10.8669 5.87996 11.6406 5.95083 12.2549 5.94256C12.5849 5.9379 12.9254 5.93117 13.2469 5.85254C13.3985 5.81529 13.5675 5.75166 13.6493 5.61043C13.7495 5.43712 13.6907 5.22553 13.654 5.04291C13.5606 4.5742 13.6802 4.10446 14.0459 3.77543C14.6009 3.2762 15.5876 3.29534 16.0781 3.82923C16.2413 3.95753 16.3682 4.13136 16.4443 4.32639C16.513 4.50281 16.5377 4.69164 16.5114 4.87891C16.4752 5.1381 16.3063 5.55869 16.6741 5.66992C16.6924 5.67561 16.695 5.69268 16.6882 5.7051C16.7055 5.71027 16.7228 5.71493 16.7402 5.71958C17.3434 5.87479 17.9882 5.77753 18.6014 5.86599C18.8742 5.90479 19.1554 5.97929 19.4014 6.10862C19.9396 6.11121 20.4784 6.15104 21.0166 6.16036C21.5658 6.16967 22.114 6.16087 22.6628 6.14328C22.6822 6.14225 22.6974 6.14949 22.7073 6.15984C22.7152 6.1526 22.7283 6.15001 22.7383 6.1588C22.7456 6.16605 22.7535 6.17329 22.7608 6.18053ZM20.0361 7.86084C20.2769 7.70461 20.2129 7.21883 20.1426 6.99793C20.1353 6.97361 20.1264 6.9493 20.1169 6.92602C20.1085 6.92446 20.1001 6.92291 20.0917 6.92136C20.1631 7.17641 20.1458 7.45008 20.0052 7.68702C19.9937 7.70668 19.9758 7.71288 19.9585 7.71082C19.9496 7.72685 19.9338 7.73875 19.9118 7.74289C19.9617 7.7729 20.0041 7.81377 20.0361 7.86084ZM20.0718 6.85617C20.0765 6.85514 20.0813 6.85462 20.086 6.85359C20.0676 6.8153 20.0482 6.77806 20.0267 6.74184C20.0435 6.77961 20.0592 6.81789 20.0718 6.85617ZM19.9323 7.60942C20.0104 7.45215 20.0356 7.2897 20.0194 7.13347C20.0162 7.1345 20.0125 7.13554 20.0089 7.13554C18.3265 7.1433 16.6442 7.15002 14.9618 7.1614C14.1345 7.16709 13.3073 7.17227 12.48 7.17744C11.6386 7.18261 10.7892 7.21934 9.94886 7.18106C9.93154 7.32074 9.9242 7.46301 9.91791 7.60011C9.92473 7.597 9.93312 7.59493 9.94256 7.59441C10.7704 7.56027 11.6034 7.58924 12.4312 7.59131C13.2611 7.59338 14.0905 7.59545 14.9198 7.597C16.5791 7.60114 18.2384 7.59545 19.8977 7.60166C19.9113 7.60114 19.9223 7.60424 19.9323 7.60942ZM19.9779 7.86757C19.9344 7.82308 19.8877 7.78324 19.8342 7.74755C19.8331 7.74651 19.8316 7.74548 19.831 7.74444C18.1943 7.74444 16.5576 7.73306 14.9209 7.73099C14.0915 7.72996 13.2616 7.7284 12.4323 7.72789C11.6139 7.72685 10.7898 7.7522 9.97246 7.71702C10.026 7.75117 10.0795 7.78738 10.122 7.83084C10.1225 7.83187 10.1225 7.83187 10.123 7.83291C10.9519 7.77962 11.7959 7.82411 12.6258 7.8298C13.4505 7.83549 14.2762 7.83756 15.1008 7.84481C16.726 7.85877 18.3522 7.85774 19.9779 7.86757ZM20.0052 7.0419C19.9302 6.67924 19.6417 6.35384 19.2965 6.18726C18.7158 5.90686 18.0522 5.9498 17.4242 5.91876C17.0297 5.8991 16.5083 5.88306 16.224 5.56593C16.1038 5.43091 16.0766 5.27002 16.1259 5.09981C16.2051 4.82407 16.2964 4.60938 16.2156 4.31501C16.064 3.7625 15.4691 3.48107 14.9214 3.52452C14.3265 3.57263 13.7951 4.00772 13.7338 4.61093C13.6949 4.99893 14.0076 5.50075 13.6399 5.80857C13.2968 6.09621 12.6715 6.05999 12.2539 6.06361C11.6858 6.06827 11.0279 6.00981 10.5007 6.26124C10.1304 6.43817 10.0039 6.77754 9.95358 7.14019C10.7919 7.09053 11.6396 7.11484 12.4795 7.10812C13.3067 7.10139 14.134 7.09467 14.9613 7.08846C16.6431 7.07501 18.3239 7.05794 20.0052 7.0419ZM16.4669 4.82356C16.4978 4.53592 16.4044 4.2638 16.2329 4.04703C16.2817 4.13705 16.3194 4.23586 16.343 4.34502C16.3939 4.58351 16.3577 4.807 16.2733 5.03204C16.2051 5.21466 16.193 5.37711 16.3436 5.52196C16.3777 5.55507 16.417 5.58301 16.459 5.60784C16.3084 5.41487 16.4443 5.03411 16.4669 4.82356Z" fill="#1D1D1B"/>
<path d="M21.8334 14.3054C21.8371 14.2635 21.9037 14.2624 21.9005 14.3054C21.8911 14.4513 21.8717 14.5961 21.857 14.7415C21.8538 14.7689 21.8113 14.7699 21.8124 14.7415C21.8192 14.5961 21.8213 14.4502 21.8334 14.3054Z" fill="#1D1D1B"/>
<path d="M21.8029 24.8436C21.805 24.8555 21.7997 24.8643 21.7929 24.8695L21.7525 24.8472C21.6581 24.5844 21.6465 24.3009 21.6403 24.0252C21.6329 23.7173 21.6298 23.4106 21.6245 23.1033C21.613 22.4814 21.602 21.8601 21.5899 21.2383C21.5784 20.6263 21.5694 20.0142 21.56 19.4022C21.5595 19.5264 21.5595 19.6506 21.5589 19.7747C21.5563 20.5926 21.5537 21.4116 21.5511 22.2295C21.55 22.6402 21.5485 23.0505 21.5485 23.4613C21.5479 23.8648 21.5799 24.2802 21.5374 24.6822L21.4876 24.6775C21.4656 24.4633 21.4629 24.2445 21.4666 24.0262C21.4698 23.7965 21.4797 23.5673 21.4803 23.3418C21.4813 22.8917 21.4803 22.4416 21.4797 21.992C21.4787 20.4136 21.4766 18.8347 21.4787 17.2558C21.4797 16.4788 21.485 15.7022 21.4818 14.9252C21.4808 14.637 21.4949 14.3437 21.4886 14.053C21.4734 13.7958 21.4776 13.5356 21.4761 13.2816C21.474 12.9169 21.4645 12.5527 21.4661 12.1885C21.4561 12.2019 21.4477 12.2164 21.4414 12.2325C21.4315 12.0126 21.4299 11.7917 21.4236 11.5765C21.4094 11.116 21.4026 10.6546 21.3932 10.1936C21.3738 9.22828 21.3564 8.26241 21.3596 7.29654C21.3596 7.29602 21.3596 7.29602 21.3596 7.29551C21.3407 7.29447 21.3224 7.29396 21.3035 7.2924L21.3061 7.24533C21.3528 7.24222 21.4 7.24067 21.4462 7.24119C21.4824 7.2417 21.4824 7.29602 21.4462 7.29706H21.4456C21.453 8.25051 21.4656 9.20396 21.486 10.1574C21.4955 10.6173 21.5049 11.0772 21.5175 11.5366C21.5227 11.7286 21.5343 11.9226 21.5443 12.1166C21.5422 12.1176 21.5401 12.1197 21.538 12.1212C21.5526 12.4942 21.5526 12.8688 21.5631 13.2423C21.5731 13.5972 21.5946 13.9645 21.5605 14.3194C21.5652 14.3292 21.57 14.3391 21.5752 14.3478C21.5726 14.5144 21.5668 14.681 21.5663 14.844C21.5616 15.7084 21.5616 16.5729 21.561 17.4374C21.5768 17.4389 21.5915 17.4493 21.592 17.4695C21.6083 18.6992 21.6387 19.9284 21.6607 21.1581C21.6717 21.7665 21.6822 22.3743 21.6927 22.9822C21.7048 23.604 21.6922 24.228 21.8029 24.8436Z" fill="#1D1D1B"/>
<path d="M21.793 24.8689C21.7998 24.8901 21.7882 24.919 21.7583 24.9211C20.8177 24.9827 19.8719 24.9987 18.9298 25.0122C17.2747 25.0355 15.6196 25.0158 13.9645 25.0189C12.2948 25.0215 10.6318 25.0851 8.96417 25.1353C8.93427 25.1363 8.93532 25.0934 8.96417 25.0908C8.96837 25.0903 8.97204 25.0898 8.97624 25.0898C9.90895 24.9946 10.8537 24.9765 11.7906 24.9537C13.4452 24.9128 15.1008 24.9372 16.7553 24.9408C18.4235 24.9444 20.0865 24.9165 21.7531 24.8477L21.793 24.8689Z" fill="#1D1D1B"/>
<path d="M21.7342 14.4689C21.7353 14.4435 21.7767 14.4441 21.7746 14.4689C21.7615 14.6236 21.7478 14.7783 21.7342 14.9324C21.7326 14.9459 21.7116 14.9464 21.7122 14.9324C21.7185 14.7777 21.7263 14.6231 21.7342 14.4689Z" fill="#1D1D1B"/>
<path d="M21.537 24.6894C21.5664 24.7158 21.5554 24.7784 21.5029 24.7805C20.565 24.8068 19.6265 24.8213 18.6885 24.8353C17.0466 24.8591 15.4046 24.8694 13.7621 24.8674C12.948 24.8663 12.1338 24.8617 11.3196 24.8544C10.5522 24.8472 9.76162 24.885 8.99519 24.8136C9.00201 24.8922 9.00988 24.9729 9.00201 25.051C9.00044 25.0681 8.98733 25.0774 8.97474 25.0774C8.96162 25.0774 8.94903 25.0686 8.94746 25.051C8.94011 24.9719 8.94851 24.8896 8.9548 24.8094C8.91493 24.8053 8.87559 24.8017 8.83624 24.797C8.81526 24.7944 8.80687 24.7768 8.81002 24.7623C8.78798 24.7701 8.75966 24.7634 8.75441 24.736C8.72975 24.5994 8.73185 24.453 8.75546 24.3143L8.80582 24.319C8.81579 24.4545 8.82838 24.5896 8.83677 24.7251C8.83729 24.7313 8.83572 24.7365 8.83362 24.7417C8.83467 24.7417 8.83467 24.7411 8.83624 24.7406C9.30208 24.7034 9.77683 24.7318 10.2437 24.7375C10.7127 24.7437 11.1822 24.7484 11.6512 24.752C14.9309 24.7789 18.209 24.7385 21.4882 24.6775L21.5381 24.6822C21.5376 24.6847 21.5376 24.6868 21.537 24.6894Z" fill="#1D1D1B"/>
<path d="M21.4184 23.4897C21.4194 23.6046 21.4016 23.7706 21.4068 23.9284C21.4079 23.9295 21.4084 23.931 21.4084 23.9331C21.4079 23.9377 21.4079 23.9434 21.4074 23.9481C21.4084 23.9739 21.4105 23.9998 21.4131 24.0252C21.4095 24.0283 21.4063 24.0319 21.4021 24.035C21.3969 24.1276 21.3932 24.2207 21.3916 24.3138C21.3911 24.3294 21.3806 24.3382 21.3691 24.3402L21.3014 24.304C21.2993 24.2083 21.3004 24.1074 21.3219 24.0164C21.3177 23.9351 21.3208 23.8524 21.3198 23.7737C21.315 23.4483 21.3108 23.1224 21.3067 22.7965C21.2988 22.1452 21.2925 21.4933 21.2857 20.842C21.2615 18.5207 21.2432 16.1994 21.2253 13.8781C21.2086 11.6794 21.1451 9.47454 21.1808 7.27534C21.1787 7.27068 21.1787 7.26447 21.1808 7.25982C21.1823 7.15532 21.1839 7.0503 21.1865 6.94579L21.2568 6.94373C21.2605 7.04461 21.2636 7.14497 21.2663 7.24585C21.2794 7.24482 21.2925 7.2443 21.3051 7.24378L21.3025 7.29086C21.2909 7.29034 21.2794 7.28982 21.2678 7.28931C21.3004 8.42641 21.2925 9.56611 21.3014 10.7037C21.3198 12.9562 21.3407 15.2087 21.3596 17.4612C21.3696 18.6019 21.3796 19.7416 21.3906 20.8818C21.3958 21.4519 21.4016 22.0225 21.4079 22.5927C21.4126 22.8927 21.4152 23.1912 21.4184 23.4897Z" fill="#1D1D1B"/>
<path d="M21.302 24.3045L21.3696 24.3407C21.3691 24.3495 21.3691 24.3594 21.3686 24.3687C21.3675 24.4018 21.3282 24.408 21.3114 24.3883V24.423V24.4235C20.3546 24.393 19.3977 24.3785 18.4403 24.3816C15.2341 24.392 12.0047 24.6004 8.80526 24.3185L8.7549 24.3138C8.6804 24.3071 8.60696 24.3004 8.53247 24.2931L8.53981 24.2161C9.45312 24.2719 10.3701 24.3071 11.285 24.3237C14.6235 24.3837 17.9661 24.1359 21.302 24.3045Z" fill="#1D1D1B"/>
<path d="M20.9798 9.09635C20.9845 9.06066 21.0396 9.05807 21.0386 9.09635C21.0354 9.24173 21.0139 9.38865 20.9955 9.53247C20.9924 9.55678 20.9551 9.55834 20.9562 9.53247C20.9599 9.38761 20.9609 9.23966 20.9798 9.09635Z" fill="#1D1D1B"/>
<path d="M20.9211 9.22515C20.9462 9.39483 20.9148 9.5878 20.8822 9.75593C20.8775 9.77973 20.8366 9.77456 20.8392 9.75024C20.856 9.57849 20.8466 9.40311 20.8665 9.23291C20.8697 9.20393 20.9163 9.19152 20.9211 9.22515Z" fill="#1D1D1B"/>
<path d="M20.0367 25.647C20.0776 25.648 20.0771 25.7085 20.0367 25.7101C19.8426 25.7178 19.6422 25.6992 19.4507 25.6682C19.4266 25.664 19.4323 25.6247 19.4559 25.6268C19.65 25.6402 19.842 25.6428 20.0367 25.647Z" fill="#1D1D1B"/>
<path d="M19.8976 25.7536C19.9359 25.7521 19.9333 25.8053 19.8976 25.8105C19.6269 25.8457 19.3269 25.8302 19.0609 25.7645C19.0441 25.7603 19.0473 25.7324 19.0656 25.7339C19.3468 25.7572 19.6149 25.7645 19.8976 25.7536Z" fill="#1D1D1B"/>
<path d="M19.3699 19.7524C19.4192 19.7519 19.4465 19.8275 19.3967 19.8497C19.351 19.8694 19.3059 19.8895 19.2603 19.9092C19.2209 19.9263 19.1847 19.8926 19.1863 19.8611C16.7895 19.9226 14.3858 19.9558 11.989 19.9377C11.9544 19.9377 11.9544 19.8859 11.989 19.8844C14.4461 19.7954 16.9112 19.7587 19.3699 19.7524Z" fill="#1D1D1B"/>
<path d="M19.3725 21.5838C19.435 21.5879 19.435 21.6759 19.3725 21.6795C18.7567 21.7162 18.1303 21.6857 17.5124 21.6898C16.9065 21.694 16.3 21.7007 15.6936 21.71C14.4697 21.7276 13.2396 21.7964 12.0163 21.7716C11.9858 21.7705 11.9874 21.7281 12.0163 21.7255C13.2333 21.6133 14.4718 21.6169 15.6936 21.5957C16.3137 21.5848 16.9337 21.5791 17.5538 21.576C18.1565 21.5729 18.7714 21.5429 19.3725 21.5838Z" fill="#1D1D1B"/>
<path d="M19.2613 17.8517C19.3337 17.8512 19.3326 17.9583 19.2613 17.9619C18.0432 18.0203 16.8167 18.0121 15.597 18.01C14.3774 18.0074 13.1498 18.0115 11.9328 17.9288C11.895 17.9262 11.894 17.8713 11.9328 17.8708C13.1535 17.8543 14.3758 17.8936 15.597 17.8936C16.8188 17.8936 18.04 17.8548 19.2613 17.8517Z" fill="#1D1D1B"/>
<path d="M19.0132 12.2645C19.095 12.265 19.095 12.3887 19.0132 12.3897C17.7736 12.4089 16.5329 12.4001 15.2933 12.4032V12.2811C16.5329 12.2744 17.7736 12.2557 19.0132 12.2645Z" fill="#1D1D1B"/>
<path d="M18.9859 15.9418C19.0661 15.9428 19.0661 16.0659 18.9859 16.0659C17.7688 16.0649 16.5523 16.0706 15.3353 16.0794C14.1198 16.0887 12.9006 16.1358 11.6852 16.1089C11.6495 16.1084 11.6506 16.0572 11.6852 16.0546C12.8975 15.9682 14.1203 15.9713 15.3353 15.9547C16.5523 15.9376 17.7693 15.9351 18.9859 15.9418Z" fill="#1D1D1B"/>
<path d="M18.957 14.0353C19.0325 14.0374 19.0294 14.1414 18.957 14.1486C18.3469 14.2122 17.719 14.2019 17.1052 14.2174C16.5014 14.2324 15.8976 14.2433 15.2943 14.2495C14.0757 14.2624 12.8461 14.2857 11.6301 14.2029C11.5955 14.2003 11.5955 14.1512 11.6301 14.1502C12.8498 14.1103 14.0736 14.1419 15.2943 14.1269C15.9118 14.1191 16.5292 14.1067 17.1467 14.0901C17.7473 14.0736 18.3563 14.0213 18.957 14.0353Z" fill="#1D1D1B"/>
<path d="M18.8191 10.4222C18.8962 10.4217 18.8956 10.5386 18.8191 10.5397C17.6345 10.5578 16.45 10.5676 15.2655 10.5795C14.6732 10.5852 14.081 10.5914 13.4887 10.5976C12.8986 10.6033 12.3011 10.6307 11.7119 10.5888C11.6747 10.5857 11.6752 10.5361 11.7119 10.5324C12.3136 10.4766 12.9258 10.491 13.5296 10.4838C14.1083 10.4771 14.6869 10.4693 15.265 10.4626C16.45 10.4476 17.6345 10.4316 18.8191 10.4222Z" fill="#1D1D1B"/>
<path d="M15.8011 4.20697C15.8069 4.24836 15.7492 4.26646 15.7361 4.22456C15.6941 4.09471 15.6359 4.00469 15.521 3.92554C15.4948 3.90691 15.5173 3.87018 15.5462 3.88363C15.67 3.93847 15.7817 4.0735 15.8011 4.20697Z" fill="#1D1D1B"/>
<path d="M15.6296 4.18427C15.6427 4.21583 15.5965 4.22721 15.5792 4.20548C15.5304 4.14237 15.4911 4.0746 15.4365 4.01614C15.3851 3.96078 15.3279 3.91526 15.2681 3.86921C15.2497 3.85525 15.2734 3.82886 15.2922 3.83869C15.4281 3.91112 15.5713 4.04149 15.6296 4.18427Z" fill="#1D1D1B"/>
<path d="M15.4769 4.3177C15.4832 4.59241 15.255 4.819 14.9801 4.82676C14.6937 4.83556 14.4219 4.61879 14.4387 4.32339C14.4545 4.05127 14.7309 3.82002 15.0069 3.88831C15.2487 3.85675 15.4716 4.08386 15.4769 4.3177ZM14.9974 4.70777C15.212 4.69329 15.3888 4.49463 15.3526 4.27994C15.3515 4.27114 15.3494 4.26338 15.3478 4.25562C15.3431 4.25459 15.3379 4.25252 15.3337 4.2489C15.1873 4.12836 14.9507 4.09732 14.8033 4.23596C14.6863 4.34615 14.6764 4.51015 14.7388 4.64673C14.8149 4.69122 14.9067 4.71346 14.9974 4.70777ZM15.3059 4.15422C15.2361 4.043 15.106 3.99126 14.9649 3.96902C14.956 3.96798 14.9492 3.96281 14.9444 3.95712C14.7556 4.00885 14.5688 4.09938 14.5552 4.32339C14.5484 4.42945 14.5898 4.51946 14.657 4.58568C14.6108 4.44807 14.6601 4.27994 14.7697 4.18164C14.9208 4.04662 15.1406 4.05748 15.3059 4.15422Z" fill="#1D1D1B"/>
<path d="M15.2933 12.2811V12.4032C14.0569 12.4063 12.8094 12.4508 11.574 12.3903C11.5299 12.3882 11.5304 12.3261 11.574 12.3236C12.8094 12.2537 14.0563 12.2879 15.2933 12.2811Z" fill="#1D1D1B"/>
<path d="M11.5189 24.0986C11.5562 24.1017 11.5472 24.1565 11.5121 24.1482C11.4035 24.1219 11.2923 24.1048 11.1821 24.0851C11.1601 24.081 11.1695 24.0489 11.191 24.0525C11.3002 24.0691 11.4093 24.0893 11.5189 24.0986Z" fill="#1D1D1B"/>
<path d="M11.4979 24.2082C11.532 24.216 11.5168 24.2641 11.4837 24.2589C11.2366 24.2201 10.9943 24.1818 10.7446 24.1684C10.7199 24.1674 10.7199 24.1301 10.7446 24.1306C10.9953 24.1342 11.2529 24.1523 11.4979 24.2082Z" fill="#1D1D1B"/>
<path d="M11.1244 20.7815C11.1553 20.7841 11.1868 20.8074 11.1847 20.841C11.1648 21.1157 11.1574 21.3904 11.1658 21.6657C11.1669 21.6998 11.137 21.7252 11.1039 21.7267C10.8259 21.7396 10.5479 21.7526 10.2704 21.7655C10.2394 21.7665 10.2037 21.7355 10.2074 21.7034C10.2431 21.4101 10.2142 21.1142 10.2462 20.8234C10.2515 20.7753 10.3165 20.7536 10.3422 20.7903C10.5993 20.7567 10.8668 20.7639 11.1244 20.7815ZM10.3417 21.6377C10.5746 21.6274 10.8081 21.617 11.0415 21.6072C11.0368 21.3697 11.042 21.1328 11.0604 20.8959C10.8275 20.8788 10.5935 20.8747 10.3606 20.8602C10.4052 21.1085 10.3732 21.3873 10.3417 21.6377Z" fill="#1D1D1B"/>
<path d="M11.1617 17.0882C11.1638 17.366 11.1638 17.6432 11.1643 17.9211C11.1643 17.9526 11.136 17.9821 11.1034 17.9811C10.9324 17.9759 10.7619 17.9702 10.5909 17.965C10.5112 17.9624 10.3727 17.9883 10.3066 17.9288C10.241 17.8698 10.2662 17.7219 10.2657 17.6464C10.2641 17.4777 10.2641 17.307 10.2856 17.1394C10.2909 17.0985 10.3286 17.0794 10.3601 17.085C10.3606 17.0731 10.369 17.0618 10.3853 17.0597C10.6224 17.0302 10.8648 17.0307 11.1029 17.0292C11.1349 17.0297 11.1611 17.0571 11.1617 17.0882ZM11.0426 17.8585C11.0426 17.621 11.0426 17.3825 11.0436 17.1451C10.8286 17.143 10.6103 17.1404 10.3968 17.113C10.4 17.1202 10.4021 17.1295 10.4021 17.1394C10.401 17.2661 10.3911 17.3923 10.389 17.5196C10.3884 17.5693 10.3596 17.8062 10.3979 17.8373C10.4162 17.8517 10.5657 17.8429 10.5904 17.844C10.6434 17.8455 10.6969 17.8471 10.7504 17.8491C10.848 17.8528 10.945 17.8554 11.0426 17.8585Z" fill="#1D1D1B"/>
<path d="M11.0572 13.2687C11.0913 13.2128 11.18 13.264 11.1454 13.3194C11.1186 13.3618 11.0924 13.4047 11.0656 13.4477C11.0966 13.5211 11.0782 13.6344 11.0808 13.7012C11.0882 13.8812 11.0961 14.0612 11.1034 14.2413C11.1045 14.2759 11.0746 14.2976 11.0431 14.3008C10.7803 14.3261 10.518 14.339 10.2541 14.3385C10.2127 14.3385 10.1864 14.3002 10.1953 14.262C10.2536 14.0002 10.2315 13.7705 10.1943 13.5082C10.187 13.4554 10.2405 13.4265 10.2767 13.4471C10.2672 13.4301 10.2756 13.4042 10.3024 13.4021C10.4718 13.3882 10.6418 13.3825 10.8112 13.3778C10.8616 13.3763 10.9329 13.3639 10.9885 13.3799C11.0116 13.3426 11.0342 13.3054 11.0572 13.2687ZM10.9812 14.1869C10.9765 14.07 10.9723 13.9531 10.9681 13.8362C10.967 13.8031 10.9765 13.6825 10.9738 13.5941C10.8846 13.7369 10.7949 13.8796 10.7042 14.0214C10.6832 14.0529 10.6297 14.0498 10.6203 14.0105C10.5893 13.8884 10.5222 13.7886 10.4492 13.6882C10.433 13.6665 10.4681 13.6422 10.486 13.6603C10.5605 13.7337 10.6145 13.8186 10.6654 13.9076C10.7504 13.7658 10.8369 13.6251 10.9235 13.4844C10.8511 13.4637 10.7068 13.4834 10.6512 13.4813C10.5342 13.4782 10.4178 13.4725 10.3013 13.4637C10.2971 13.4632 10.294 13.4621 10.2903 13.4606C10.294 13.4653 10.2976 13.4715 10.3003 13.4792C10.3821 13.712 10.3748 13.9748 10.3291 14.2169C10.5473 14.2154 10.764 14.2056 10.9812 14.1869Z" fill="#1D1D1B"/>
<path d="M11.0955 15.2904C11.1689 15.3551 11.1333 15.5134 11.1327 15.5952C11.1322 15.7742 11.1317 15.9526 11.1317 16.1311C11.1317 16.1616 11.1049 16.1885 11.074 16.188C10.8348 16.186 10.5971 16.1911 10.3584 16.2103C10.3254 16.2129 10.2971 16.1803 10.2971 16.1497C10.2965 15.8895 10.2902 15.6288 10.2981 15.3686C10.2992 15.338 10.3186 15.3199 10.3411 15.3148C10.3396 15.3075 10.3417 15.2987 10.3485 15.2956C10.4765 15.2382 10.6349 15.2615 10.7739 15.261C10.8605 15.2604 11.0226 15.2258 11.0955 15.2904ZM11.0194 15.7292C11.0205 15.6593 11.0567 15.411 10.9979 15.3696C10.9764 15.3551 10.8327 15.368 10.8059 15.367C10.7414 15.366 10.6779 15.3639 10.6139 15.3624C10.5415 15.3603 10.476 15.3634 10.4109 15.3468C10.4141 15.3536 10.4156 15.3603 10.4156 15.3691C10.424 15.6076 10.4203 15.8471 10.4198 16.0856C10.6186 16.0727 10.8175 16.067 11.0173 16.0737C11.0179 15.9583 11.0189 15.844 11.0194 15.7292Z" fill="#1D1D1B"/>
<path d="M11.0357 9.68504C11.0745 9.63952 11.138 9.69798 11.1139 9.74454C11.0929 9.78644 11.0693 9.82628 11.0446 9.86611C11.0446 9.86715 11.0451 9.86715 11.0451 9.86766C11.0462 10.1284 11.0488 10.3897 11.0478 10.6504C11.0478 10.6799 11.0273 10.6964 11.0048 10.7001C10.9985 10.7145 10.9848 10.7264 10.9659 10.7264C10.721 10.7295 10.4644 10.7001 10.2195 10.6835C10.1906 10.6814 10.1827 10.6551 10.1932 10.6369C10.1911 10.6333 10.1895 10.6287 10.1885 10.624C10.156 10.3633 10.1675 10.0974 10.1675 9.83507C10.1675 9.8061 10.1922 9.78282 10.221 9.7823C10.4623 9.7792 10.7031 9.78903 10.9434 9.81076C10.9717 9.76678 11.0016 9.72384 11.0357 9.68504ZM10.9418 10.6318C10.9387 10.4336 10.9376 10.236 10.9366 10.0373C10.9276 10.0524 10.9177 10.0674 10.9093 10.0824C10.8432 10.1946 10.7907 10.3198 10.7136 10.4248C10.6979 10.4466 10.669 10.4533 10.648 10.4331C10.5751 10.3638 10.498 10.2971 10.4324 10.2205C10.4183 10.2039 10.4366 10.1765 10.4571 10.1889C10.5274 10.2324 10.5919 10.2836 10.6564 10.3353C10.6963 10.2282 10.7587 10.1263 10.8138 10.0275C10.8353 9.98924 10.8573 9.95044 10.8799 9.91267C10.6785 9.89612 10.4765 9.88784 10.2745 9.8868C10.274 10.13 10.2803 10.3747 10.2494 10.6157C10.4702 10.5888 10.7231 10.5842 10.9418 10.6318Z" fill="#1D1D1B"/>
<path d="M11.0473 18.9376C11.0788 18.9366 11.1087 18.9656 11.1077 18.9971C11.0972 19.276 11.0835 19.5554 11.0662 19.8337C11.0647 19.8637 11.0395 19.8989 11.0043 19.8952C10.774 19.8689 10.5453 19.8663 10.315 19.8859C10.2799 19.889 10.2542 19.8554 10.2526 19.8244C10.2395 19.5662 10.2243 19.3086 10.2159 19.0504C10.2133 18.9811 10.3066 18.9733 10.3339 19.0246C10.3381 19.0318 10.3407 19.0406 10.3407 19.0504C10.3554 19.2863 10.3643 19.5228 10.3753 19.7592C10.5668 19.7462 10.7562 19.7494 10.9471 19.768C10.9618 19.5305 10.9744 19.2931 10.9844 19.0556C10.794 19.0504 10.603 19.0468 10.4136 19.0297C10.4021 19.0287 10.3937 19.0246 10.3879 19.0178C10.3712 18.9987 10.3795 18.963 10.4136 18.9604C10.623 18.9428 10.8359 18.9423 11.0473 18.9376Z" fill="#1D1D1B"/>
<path d="M10.9613 11.3545C10.9986 11.3121 11.0752 11.37 11.0405 11.415C11.0248 11.4357 11.0096 11.4564 10.9954 11.4771C10.9986 11.4838 11.0001 11.4911 10.9986 11.4988C10.966 11.7782 10.9561 12.0576 10.9692 12.3385C10.9708 12.3695 10.9419 12.3949 10.912 12.3949C10.7483 12.3964 10.5841 12.4006 10.4205 12.399C10.3544 12.3985 10.2788 12.4088 10.2332 12.3499C10.1807 12.2821 10.218 12.1465 10.2222 12.0679C10.2316 11.9034 10.239 11.7384 10.2521 11.5744C10.2537 11.5557 10.2626 11.5418 10.2746 11.5325C10.271 11.5319 10.2678 11.5314 10.2641 11.5314C10.2332 11.5268 10.2353 11.4771 10.2641 11.4714C10.4672 11.4295 10.6828 11.4368 10.8905 11.4414C10.9141 11.4114 10.9372 11.3819 10.9613 11.3545ZM10.6046 12.2842C10.6875 12.2831 10.7704 12.2831 10.8533 12.2826C10.8464 12.0808 10.8522 11.8796 10.8685 11.6789C10.7977 11.8092 10.7415 11.9458 10.6933 12.0953C10.6801 12.1352 10.6209 12.1377 10.6088 12.0953C10.5789 11.9867 10.5191 11.9044 10.4394 11.8263C10.4205 11.8077 10.4462 11.7741 10.4682 11.7896C10.5375 11.8377 10.5899 11.8956 10.6329 11.9624C10.6707 11.8201 10.7342 11.6809 10.8144 11.5537C10.6628 11.5537 10.5097 11.5563 10.3591 11.5428C10.3649 11.5516 10.368 11.5619 10.3675 11.5749C10.3628 11.6882 10.3549 11.801 10.3486 11.9143C10.3428 12.0063 10.3114 12.1326 10.3297 12.2226C10.3512 12.3261 10.5107 12.2847 10.6046 12.2842Z" fill="#1D1D1B"/>
<path d="M10.7996 18.1792C10.8332 18.1792 10.8332 18.2309 10.7996 18.2309C10.766 18.2309 10.766 18.1792 10.7996 18.1792Z" fill="#1D1D1B"/>
<path d="M10.7997 18.0758C10.8264 18.0768 10.8264 18.1151 10.7997 18.1161C10.6439 18.1239 10.4855 18.1166 10.3296 18.1146C10.305 18.114 10.305 18.0778 10.3296 18.0773C10.486 18.0752 10.6439 18.0675 10.7997 18.0758Z" fill="#1D1D1B"/>
<path d="M10.625 6.44704C10.657 6.44135 10.6812 6.48532 10.6481 6.50188C10.5946 6.52929 10.5421 6.54792 10.4965 6.58879C10.4519 6.62811 10.4168 6.6757 10.3895 6.72795C10.3821 6.74244 10.3606 6.73209 10.3643 6.71709C10.3926 6.59913 10.4981 6.46928 10.625 6.44704Z" fill="#1D1D1B"/>
<path d="M10.4435 6.41547C10.4661 6.40254 10.4971 6.42944 10.4813 6.45272C10.4362 6.51791 10.3738 6.56964 10.3281 6.63534C10.2788 6.70674 10.2442 6.78434 10.2122 6.86504C10.1996 6.89608 10.1514 6.8847 10.1603 6.85056C10.1996 6.70001 10.3019 6.49618 10.4435 6.41547Z" fill="#1D1D1B"/>
<path d="M8.55912 7.06319C8.55912 7.06422 8.55965 7.06474 8.55912 7.06577C8.35243 8.30583 8.48463 9.5552 8.51401 10.804C8.56594 13.0188 8.54443 15.2356 8.54338 17.4508C8.54233 19.7059 8.54233 21.9609 8.54024 24.216L8.53289 24.2931C8.52292 24.2921 8.51296 24.291 8.50299 24.29C8.48201 24.2983 8.45735 24.2962 8.43899 24.2838C8.43007 24.2828 8.4222 24.2822 8.41381 24.2812C8.36712 24.2765 8.36555 24.2057 8.41329 24.2083C8.41434 22.9366 8.41538 21.6645 8.41801 20.3929C8.42273 18.1373 8.43217 15.8812 8.42955 13.6256C8.4285 12.4968 8.42063 11.3679 8.38653 10.2396C8.36975 9.68764 8.33512 9.13615 8.32778 8.58416C8.32096 8.07096 8.3346 7.54017 8.48935 7.04663L8.55912 7.06319Z" fill="#1D1D1B"/>
<path d="M8.25179 15.8528C8.28641 16.0338 8.26281 16.2485 8.25284 16.4322C8.25127 16.4632 8.20563 16.4632 8.20405 16.4322C8.19356 16.2485 8.16995 16.0344 8.2051 15.8528C8.20877 15.83 8.24707 15.83 8.25179 15.8528Z" fill="#1D1D1B"/>
<path d="M8.1741 15.7229C8.19246 15.8713 8.17567 16.0379 8.16571 16.1869C8.16413 16.2133 8.12584 16.2133 8.12426 16.1869C8.1143 16.0374 8.09751 15.8713 8.11587 15.7229C8.12059 15.6861 8.16938 15.6861 8.1741 15.7229Z" fill="#1D1D1B"/>
<path d="M15.8136 15.6164C15.7187 15.8011 15.6862 16.0132 15.6998 16.2237C15.1868 16.0173 14.6716 15.8166 14.157 15.6127C13.6649 15.4172 13.1755 15.2009 12.6708 15.038C12.6556 15.0333 12.6441 15.0416 12.6394 15.0535L12.6378 15.053C12.6378 15.0509 12.6378 15.0494 12.6373 15.0473C12.6325 15.0344 12.6263 15.0214 12.6205 15.0095C12.7789 14.9997 12.9431 14.9505 13.0286 14.8067C13.0769 14.725 13.0895 14.6226 13.058 14.5356C13.4887 14.7245 13.9419 14.8745 14.3789 15.0483C14.8573 15.2377 15.3336 15.4317 15.8136 15.6164Z" fill="#FEC700"/>
<path d="M24.0917 17.4229C24.0414 17.5486 23.9952 17.6753 23.9496 17.8026C21.773 17.0307 19.617 16.203 17.4394 15.4368C17.4064 15.4249 17.3733 15.4135 17.3403 15.4021C17.3314 15.399 17.323 15.4011 17.3167 15.4047C17.3093 15.3995 17.303 15.3939 17.2957 15.3882C17.0895 15.2402 16.8278 15.145 16.5739 15.1461C16.0335 14.8879 15.4712 14.6665 14.9104 14.4559C14.3979 14.2635 13.8764 14.0628 13.344 13.9267C13.3293 13.9231 13.3146 13.9189 13.2999 13.9153C13.2973 13.9117 13.2957 13.907 13.2931 13.9034C13.4652 13.8253 13.5659 13.6018 13.4867 13.428C14.8343 13.9846 16.2303 14.4394 17.6005 14.9391C18.9975 15.4482 20.3887 15.9702 21.7762 16.5056C22.551 16.8046 23.3211 17.115 24.0917 17.4229ZM15.8494 14.5816C15.8825 14.5791 15.8893 14.5273 15.8541 14.5221C15.7854 14.5128 15.7209 14.5102 15.6553 14.4849C15.5903 14.4601 15.5362 14.4218 15.4827 14.3783C15.467 14.3664 15.4413 14.3856 15.4549 14.4026C15.5425 14.5092 15.7083 14.5946 15.8494 14.5816ZM15.6223 14.6137C15.6417 14.6204 15.6621 14.5972 15.6438 14.5822C15.5903 14.5387 15.5273 14.5066 15.4665 14.473C15.4009 14.4368 15.3332 14.398 15.2629 14.3716C15.2472 14.3659 15.2314 14.3851 15.2456 14.397C15.2996 14.4394 15.361 14.473 15.4203 14.5082C15.4853 14.5465 15.5514 14.5878 15.6223 14.6137Z" fill="#FEC700"/>
<path d="M23.6501 18.5113C23.6585 18.5139 23.6658 18.5129 23.6726 18.5113C23.5924 18.6826 23.5069 18.858 23.4628 19.0339C22.6507 18.7167 21.8397 18.397 21.0261 18.0825C20.2995 17.801 19.5756 17.4896 18.8338 17.2434C18.7997 17.232 18.7651 17.2206 18.731 17.2092C18.6628 17.1114 18.5946 17.0142 18.5259 16.9174C18.3853 16.7208 18.2447 16.5237 18.1041 16.3271C18.9823 16.7695 19.9182 17.1238 20.833 17.4808C21.3031 17.6639 21.7741 17.8435 22.2478 18.0173C22.71 18.1875 23.1753 18.381 23.6501 18.5113ZM19.5934 17.2759C19.6244 17.278 19.6359 17.2335 19.6039 17.2278C19.5352 17.2149 19.4665 17.2061 19.3983 17.1875C19.3311 17.1694 19.2677 17.143 19.2016 17.1218C19.1853 17.1166 19.1801 17.1399 19.1926 17.1482C19.3054 17.2185 19.4607 17.2656 19.5934 17.2759ZM19.489 17.1363C19.5137 17.1394 19.5284 17.1057 19.5037 17.0938C19.4313 17.0581 19.3495 17.0395 19.2745 17.0095C19.1984 16.979 19.1239 16.9454 19.0505 16.9097C19.0274 16.8983 19.0117 16.9314 19.0332 16.9448C19.1664 17.024 19.3311 17.1166 19.489 17.1363Z" fill="#FEC700"/>
<path d="M23.9206 17.8822C23.8713 18.0188 23.8225 18.1559 23.769 18.2909C23.7491 18.3421 23.726 18.3939 23.7019 18.4456C23.6977 18.4368 23.6914 18.429 23.6804 18.4239C23.2182 18.2283 22.7288 18.0835 22.2572 17.9096C21.784 17.7358 21.3113 17.5578 20.8408 17.3752C19.9306 17.0224 19.0346 16.6225 18.1171 16.2893C18.0988 16.2826 18.0804 16.2759 18.0615 16.2692C18.007 16.1926 17.9524 16.116 17.8968 16.04C17.7541 15.8444 17.603 15.6489 17.4194 15.489C19.5519 16.368 21.7415 17.1295 23.9206 17.8822Z" fill="#3C3C3B"/>
<path d="M16.3866 15.1657C16.246 15.1951 16.1133 15.2593 16 15.3669C15.9444 15.4202 15.8972 15.4781 15.8579 15.5402C15.8573 15.5397 15.8568 15.5397 15.8568 15.5392C15.3653 15.3431 14.8706 15.1558 14.3769 14.9649C13.9494 14.7989 13.5171 14.6038 13.0723 14.4838C13.056 14.4792 13.0392 14.475 13.0225 14.4709C13.0209 14.4683 13.0193 14.4657 13.0172 14.4636C13.2643 14.4605 13.407 14.1982 13.3304 13.981C13.8513 14.1817 14.3859 14.3477 14.9068 14.5495C15.4062 14.7425 15.8951 14.9561 16.3866 15.1657Z" fill="#3C3C3B"/>
<path d="M12.0488 13.5393C12.0493 13.5403 12.0493 13.5413 12.0493 13.5424C12.0881 13.666 12.0912 13.7814 12.0257 13.8983C11.9711 13.9961 11.893 14.0349 11.808 14.0851C11.6322 13.8833 11.4549 13.6779 11.2561 13.5072C11.5126 13.5507 11.7844 13.5486 12.0488 13.5393Z" fill="#3C3C3B"/>
<path d="M24.4342 17.4426C24.4358 17.4462 24.4389 17.4483 24.441 17.4508C24.2947 18.0939 24.024 18.6961 23.7245 19.2832C23.7213 19.2843 23.7182 19.2858 23.7155 19.2874C23.6657 19.3231 23.6117 19.3583 23.5508 19.3195C23.4978 19.2858 23.4795 19.2113 23.4968 19.1544C23.4989 19.1487 23.4968 19.1425 23.4926 19.1389C23.4957 19.1358 23.4994 19.1327 23.502 19.1291H23.5026C23.5141 19.1151 23.5251 19.1006 23.5356 19.0851C23.6961 18.8611 23.7827 18.5538 23.8797 18.3029C23.9883 18.0204 24.1011 17.7328 24.1719 17.4384C24.173 17.4348 24.1725 17.4317 24.1725 17.4281C24.1929 17.4167 24.2076 17.3955 24.2108 17.3738C24.2915 17.336 24.3896 17.3593 24.4342 17.4426Z" fill="#C6C6C6"/>
<path d="M24.5355 17.4927C24.6231 17.4264 24.7605 17.4885 24.7737 17.5935C24.7773 17.621 24.7999 17.6323 24.8209 17.6292C24.7013 17.9055 24.6074 18.1942 24.4893 18.4715C24.3729 18.7451 24.2407 19.0126 24.1268 19.2873C24.1205 19.2889 24.1143 19.292 24.1085 19.2982C24.0607 19.3551 24.0083 19.4373 23.9233 19.4358C23.864 19.4347 23.8032 19.3846 23.8142 19.323C23.8179 19.3028 23.7995 19.2889 23.7827 19.2904C23.9663 19.0385 24.0922 18.7363 24.216 18.4554C24.3508 18.1507 24.4741 17.8284 24.5208 17.4973C24.5266 17.4978 24.5313 17.4963 24.5355 17.4927Z" fill="#C6C6C6"/>
<path d="M25.0612 17.6366C25.0706 17.6485 25.0853 17.6521 25.0984 17.6495C24.875 18.261 24.6142 18.8699 24.418 19.4907C24.418 19.4918 24.4175 19.4928 24.4175 19.4939C24.3965 19.4928 24.3855 19.5161 24.3929 19.5337C24.3483 19.5621 24.299 19.5797 24.2465 19.5554C24.1888 19.5295 24.1552 19.467 24.1579 19.4054C24.1584 19.393 24.15 19.3868 24.14 19.3862C24.151 19.3702 24.161 19.3547 24.1689 19.3381C24.171 19.3335 24.172 19.3288 24.1725 19.3242C24.3336 19.0541 24.4595 18.7634 24.5822 18.4747C24.7018 18.1917 24.833 17.902 24.9106 17.6045C24.9122 17.5988 24.9117 17.5932 24.9106 17.5885C24.9143 17.5875 24.918 17.5859 24.9217 17.5854C24.9741 17.5709 25.0266 17.5926 25.0612 17.6366Z" fill="#C6C6C6"/>
<path d="M25.8926 18.0964C25.9875 18.2045 25.8931 18.4192 25.858 18.5537C25.8207 18.696 25.7798 18.8377 25.7363 18.9785C25.6591 19.2278 25.5789 19.6929 25.2526 19.7281C25.0029 19.7555 24.717 19.5832 24.4709 19.5077C24.7605 18.9666 24.9693 18.3571 25.1545 17.771L25.1566 17.7715C25.1508 17.7917 25.1566 17.815 25.1812 17.8274C25.2888 17.8827 25.4005 17.9283 25.5159 17.964C25.6376 18.0022 25.8081 18.0007 25.8926 18.0964ZM25.4624 19.3639C25.4897 19.3416 25.4608 19.2971 25.4309 19.3178C25.3313 19.3866 25.2269 19.4275 25.1046 19.4353C25.0784 19.4368 25.0821 19.473 25.1067 19.4746C25.2347 19.4813 25.3627 19.4446 25.4624 19.3639ZM25.4058 19.546C25.4288 19.5315 25.4089 19.5015 25.3858 19.5067C25.305 19.5227 25.2321 19.5465 25.1482 19.5413C25.0664 19.5372 24.9913 19.5124 24.9147 19.4834C24.8948 19.4756 24.8717 19.5025 24.8917 19.5165C25.0291 19.6117 25.2599 19.6365 25.4058 19.546Z" fill="#E8C0A8"/>
<path d="M13.3906 13.412C13.4698 13.5786 13.4105 13.7762 13.2443 13.8559C13.2269 13.8533 13.2091 13.861 13.2002 13.874C13.1986 13.874 13.197 13.875 13.1955 13.8755C13.1656 13.8843 13.174 13.934 13.206 13.9298C13.207 13.9293 13.2086 13.9288 13.2102 13.9288C13.3696 14.1394 13.2049 14.3923 12.9536 14.4048C12.9437 14.4053 12.9368 14.411 12.9326 14.4182C12.909 14.4296 12.8954 14.4622 12.9222 14.4844C13.0286 14.5765 13.005 14.7333 12.9096 14.8243C12.8277 14.9019 12.7076 14.9397 12.5969 14.965C12.5413 14.8755 12.4605 14.8021 12.3886 14.7234C12.2638 14.5863 12.1384 14.4498 12.0125 14.3137C11.9611 14.2584 11.9107 14.2009 11.8599 14.143C11.9606 14.113 12.0498 14.0142 12.0959 13.9324C12.1626 13.8145 12.1862 13.6603 12.1264 13.5361C12.1814 13.5336 12.237 13.5315 12.2906 13.5289C12.6551 13.5149 13.0349 13.4958 13.3906 13.412ZM12.9326 13.7079C12.9594 13.7027 12.9505 13.6577 12.9232 13.6608C12.7942 13.6779 12.6662 13.7053 12.5382 13.7286C12.514 13.7333 12.5151 13.7705 12.5403 13.7669C12.6709 13.7483 12.8031 13.7333 12.9326 13.7079ZM12.8644 13.6117C12.8985 13.6096 12.8954 13.5599 12.8618 13.5599C12.6814 13.5584 12.4983 13.5879 12.3236 13.6308C12.3031 13.636 12.3094 13.6707 12.3309 13.667C12.5083 13.6355 12.684 13.6225 12.8644 13.6117Z" fill="#F4E3D6"/>
<path d="M23.0971 26.4871C23.2351 26.4623 23.3888 26.5254 23.4265 26.6692C23.4612 26.7996 23.3835 26.9429 23.2477 26.9693C22.935 27.0308 22.8521 26.6288 23.0971 26.4871ZM23.3269 26.7514C23.3667 26.7494 23.362 26.6925 23.3232 26.6909C23.2849 26.6899 23.2466 26.6914 23.2083 26.693C23.2109 26.6495 23.2183 26.6071 23.2199 26.5642C23.2214 26.5264 23.1648 26.5264 23.1559 26.5595C23.1443 26.6014 23.1407 26.649 23.1427 26.6976C23.1155 26.6992 23.0882 26.7013 23.0614 26.7028C23.0342 26.7044 23.0373 26.7432 23.0635 26.7442C23.0913 26.7452 23.1191 26.7468 23.1469 26.7483C23.1527 26.7965 23.1643 26.843 23.1795 26.8834C23.1873 26.9041 23.2209 26.8989 23.2188 26.8761C23.2157 26.8342 23.2099 26.7934 23.2078 26.7514C23.2477 26.7525 23.2875 26.753 23.3269 26.7514Z" fill="#F6F6F6"/>
<path d="M31.8639 29.2248C32.1629 29.3443 31.3068 30.1534 31.1988 30.2383C30.8667 30.4969 30.4911 30.6977 30.1123 30.8813C29.6701 31.0955 29.2169 31.2859 28.7536 31.4519C28.5276 31.5332 28.2983 31.6087 28.0685 31.6791C27.8283 31.752 27.5723 31.8042 27.342 31.9051C27.3373 31.9072 27.3336 31.9108 27.3304 31.9144C26.7398 31.3216 26.115 30.7634 25.5322 30.1612C25.2447 29.8637 24.9598 29.5631 24.6808 29.259C24.4064 28.9604 24.1546 28.62 23.854 28.3459C23.8975 28.32 23.9406 28.2936 23.9825 28.2677C25.3653 27.4276 26.7319 26.5476 28.0449 25.6024C28.0465 25.604 28.0481 25.6055 28.0497 25.6071C28.6435 26.2393 29.2877 26.827 29.9146 27.426C30.5378 28.0215 31.1442 28.648 31.8235 29.1829C31.8246 29.1839 31.8262 29.1839 31.8272 29.185C31.8309 29.2005 31.8419 29.2155 31.8639 29.2248Z" fill="#F6F6F6"/>
<path d="M27.2538 24.1984C27.5502 24.5782 27.8288 25.0008 28.1635 25.3506C27.001 26.1664 25.8332 26.9698 24.6293 27.7262C24.3303 27.914 24.0334 28.1204 23.7213 28.2854C23.5959 28.3516 23.4548 28.3842 23.3378 28.2813C23.2785 28.2295 23.2334 28.1602 23.1857 28.0976C23.0687 27.9455 22.9527 27.7929 22.8363 27.6403C22.6202 27.3573 22.4045 27.0738 22.1874 26.7913C22.0347 26.5927 21.7173 26.2828 21.8359 26.0096C22.1926 25.8037 22.5147 25.5208 22.8483 25.2807C23.2061 25.0236 23.5665 24.7696 23.929 24.5192C24.6435 24.0251 25.379 23.5626 26.0934 23.0696C26.1039 23.0624 26.1102 23.0536 26.1139 23.0443C26.4187 22.9698 26.627 23.3904 26.7801 23.588C26.9375 23.7913 27.0954 23.9951 27.2538 24.1984ZM23.7721 26.7515C23.77 26.721 23.7186 26.7143 23.715 26.7474C23.705 26.8472 23.6856 26.93 23.6184 27.0097C23.6006 27.0314 23.6321 27.0578 23.652 27.0381C23.7239 26.9662 23.7805 26.856 23.7721 26.7515ZM23.4201 27.0836C23.5403 27.0521 23.6268 26.8974 23.5759 26.781C23.5655 26.7567 23.5209 26.7603 23.5256 26.7903C23.546 26.9026 23.5114 26.9998 23.4065 27.0567C23.3902 27.065 23.4044 27.0878 23.4201 27.0836ZM23.5146 26.6398C23.4611 26.4411 23.2329 26.3475 23.0461 26.4199C23.0204 26.4302 23.0162 26.4545 23.0251 26.4732C22.8935 26.5466 22.8253 26.7091 22.8782 26.8555C22.9365 27.0179 23.1348 27.0976 23.2979 27.049C23.4705 26.9978 23.5602 26.8084 23.5146 26.6398Z" fill="#F6F6F6"/>
<path d="M31.9237 29.1059C32.2857 29.244 31.8366 29.7919 31.7081 29.9404C31.3997 30.2973 30.9973 30.5632 30.5834 30.7867C30.0934 31.0511 29.5793 31.2772 29.0574 31.4738C28.7699 31.5819 28.4788 31.6807 28.1839 31.7686C27.9164 31.8483 27.6342 31.944 27.3535 31.9616C27.352 31.9616 27.3514 31.9616 27.3509 31.9611L27.3304 31.913C27.3336 31.9094 27.3373 31.9057 27.342 31.9037C27.5723 31.8033 27.8283 31.7505 28.0685 31.6776C28.2983 31.6072 28.5276 31.5317 28.7536 31.4505C29.2169 31.2849 29.6701 31.094 30.1123 30.8799C30.4911 30.6962 30.8667 30.4955 31.1988 30.2368C31.3068 30.152 32.1629 29.3434 31.8639 29.2233C31.8414 29.2145 31.8309 29.1995 31.8272 29.1825C31.8262 29.1814 31.8246 29.1814 31.8235 29.1804C31.1442 28.6455 30.5378 28.019 29.9146 27.4235C29.2872 26.8244 28.6435 26.2368 28.0497 25.6046L28.0916 25.5663C29.4057 26.6925 30.5462 28.0143 31.8986 29.0956C31.9006 29.0971 31.9022 29.0992 31.9038 29.1007C31.9101 29.1023 31.9169 29.1038 31.9237 29.1059Z" fill="#1D1D1B"/>
<path d="M25.0543 15.1693C25.5411 15.9541 25.8181 16.8988 25.6161 17.8145C25.6104 17.8393 25.5946 17.8533 25.5757 17.8584L25.5076 17.8393C25.4971 17.8274 25.4918 17.8103 25.4955 17.7901C25.6964 16.7953 25.3538 15.8129 24.7836 14.9955C24.526 14.6266 24.2255 14.2878 23.9091 13.966C23.6106 13.6628 23.308 13.3498 22.9591 13.1026C22.2373 12.5904 21.3439 12.5857 20.492 12.6266C19.5587 12.6716 18.6292 12.773 17.7043 12.9091C17.4478 12.9468 17.1897 12.9851 16.9326 13.0265C17.0706 13.3612 17.1483 13.7948 16.7674 14.0017C16.7055 14.0353 16.6399 14.0633 16.5707 14.0865C16.2785 14.1833 15.9375 14.1833 15.6443 14.1052L15.6511 14.0555C15.9569 14.0917 16.2648 14.0886 16.5607 13.9893C17.0344 13.8304 16.9757 13.4337 16.8561 13.0441C16.8561 13.0425 16.8561 13.041 16.8555 13.0394C16.6625 13.0715 16.4694 13.1062 16.2785 13.146C16.055 13.1921 15.8011 13.2583 15.6495 13.4393C15.5231 13.5899 15.4832 13.8196 15.5897 13.9831L15.5268 14.0239C15.3426 13.803 15.4433 13.4543 15.6631 13.2753C15.8457 13.1274 16.0849 13.0705 16.311 13.026C16.6006 12.9701 16.8923 12.9215 17.1829 12.8739C18.2625 12.6975 19.351 12.565 20.4448 12.5087C21.345 12.4626 22.2798 12.4678 23.0425 13.0074C23.4501 13.2955 23.81 13.6659 24.151 14.027C24.4851 14.3814 24.7978 14.7565 25.0543 15.1693Z" fill="#1D1D1B"/>
<path d="M25.8642 17.9376C25.946 17.9619 26.0105 17.9991 26.0378 18.0845C26.0882 18.2433 25.9943 18.457 25.9539 18.6106C25.904 18.8005 25.8479 18.9888 25.7855 19.175C25.7042 19.4166 25.6176 19.7534 25.3254 19.8181C25.2987 19.8238 25.2703 19.8269 25.242 19.8284H25.1691C24.9309 19.8139 24.6634 19.6779 24.4625 19.5754L24.462 19.576C24.409 19.651 24.2899 19.6655 24.2112 19.6251C24.1351 19.5863 24.0984 19.501 24.1121 19.4202L24.1404 19.3861C24.1503 19.3866 24.1587 19.3928 24.1582 19.4052C24.1556 19.4668 24.1886 19.5294 24.2469 19.5553C24.2999 19.5796 24.3492 19.562 24.3932 19.5335C24.3854 19.5165 24.3969 19.4932 24.4179 19.4937C24.4179 19.4927 24.4184 19.4916 24.4184 19.4906L24.4714 19.5072C24.7174 19.5827 25.0033 19.7544 25.253 19.7275C25.5788 19.6924 25.6596 19.2273 25.7367 18.9779C25.7802 18.8372 25.8212 18.6955 25.8584 18.5532C25.8936 18.4187 25.9885 18.204 25.893 18.0959C25.8086 18.0002 25.6381 18.0017 25.5169 17.9639C25.4015 17.9282 25.2897 17.8827 25.1822 17.8274C25.157 17.8144 25.1518 17.7912 25.1576 17.7715C25.1654 17.7451 25.1938 17.7244 25.2268 17.7389C25.3207 17.7808 25.4141 17.8113 25.508 17.8393L25.5762 17.8584C25.6706 17.8843 25.7666 17.9086 25.8642 17.9376Z" fill="#1D1D1B"/>
<path d="M24.7831 14.9955C25.3533 15.8129 25.6959 16.7953 25.4949 17.7901C25.4907 17.8103 25.4965 17.8274 25.507 17.8393C25.4131 17.8119 25.3197 17.7808 25.2258 17.7389C25.1922 17.7244 25.1639 17.7451 25.1566 17.7715L25.1545 17.771C25.1665 17.7322 25.1791 17.6939 25.1907 17.6556C25.2022 17.6179 25.154 17.5925 25.1246 17.607C25.1246 17.6065 25.1241 17.6065 25.1241 17.606C25.0926 17.5222 24.9808 17.4916 24.9037 17.5284C24.8864 17.5367 24.8712 17.548 24.8581 17.5636C24.857 17.5646 24.8565 17.5656 24.856 17.5672C24.8555 17.5677 24.8544 17.5677 24.8539 17.5682C24.8392 17.4223 24.6456 17.3509 24.5265 17.4239C24.5213 17.4099 24.5103 17.4006 24.4972 17.3965C24.441 17.2863 24.2758 17.2418 24.1761 17.3142C24.1751 17.3137 24.1746 17.3132 24.1735 17.3126C23.448 17.0095 22.7183 16.7187 21.9849 16.4342C21.9839 16.4306 21.9818 16.427 21.9797 16.4233C21.7788 16.1072 21.6067 15.7777 21.4839 15.4238C21.3706 15.0969 21.3197 14.7606 21.2453 14.4244C21.2495 14.4233 21.2531 14.4223 21.2573 14.4218C21.3218 14.4062 21.2872 14.3147 21.2248 14.3266C20.4946 14.4678 19.7664 14.5775 19.0221 14.6116C18.3978 14.6401 17.7772 14.6121 17.1545 14.5713C17.0659 14.5651 16.9767 14.5589 16.888 14.5527C16.5203 14.4202 16.1526 14.2888 15.7848 14.1564C15.7376 14.1393 15.6904 14.1222 15.6432 14.1052C15.9364 14.1833 16.2774 14.1833 16.5696 14.0865C16.6383 14.0638 16.7039 14.0353 16.7663 14.0017C17.1472 13.7953 17.0695 13.3617 16.9316 13.0265C17.1886 12.9846 17.4467 12.9468 17.7032 12.9091C18.6276 12.773 19.5571 12.6721 20.4909 12.6266C21.3434 12.5857 22.2362 12.5909 22.958 13.1026C23.3069 13.3498 23.6096 13.6628 23.9081 13.966C24.2254 14.2873 24.5255 14.6266 24.7831 14.9955Z" fill="#F3D1BB"/>
<path d="M28.2858 25.3164C28.2999 25.3392 28.2941 25.3656 28.28 25.3842L28.1635 25.3506C27.8288 25.0008 27.5503 24.5787 27.2539 24.1984C27.0955 23.9951 26.9376 23.7913 26.7791 23.5875C26.626 23.3898 26.4177 22.9692 26.1129 23.0437L26.0935 22.9837C26.2441 22.8891 26.4035 22.9599 26.5237 23.0779C26.7246 23.275 26.8872 23.5207 27.0614 23.7411C27.2717 24.0075 27.4816 24.274 27.6914 24.5409C27.8902 24.7944 28.1179 25.0422 28.2858 25.3164Z" fill="#1D1D1B"/>
<path d="M28.1635 25.3506L28.28 25.3842C28.2847 25.4075 28.279 25.4328 28.2533 25.4515C28.1997 25.4908 28.1452 25.5291 28.0917 25.5679L28.0497 25.6062C28.0481 25.6046 28.0466 25.603 28.045 25.6015C26.7319 26.5472 25.3654 27.4267 23.9826 28.2668C23.9406 28.2922 23.8971 28.3191 23.8541 28.3449L23.7985 28.376C23.6222 28.4712 23.4375 28.526 23.2592 28.3703C23.1322 28.2591 23.0389 28.1002 22.9376 27.9678L22.5389 27.4448C22.2966 27.1266 22.0086 26.8131 21.8071 26.468C21.7263 26.3289 21.6639 26.1525 21.7415 26.0138C21.7295 25.9988 21.7263 25.9781 21.7447 25.9605C21.752 25.9533 21.7594 25.9466 21.7667 25.9398L21.8344 26.0107C21.7164 26.2844 22.0332 26.5937 22.1859 26.7924C22.4031 27.0749 22.6187 27.3584 22.8348 27.6414C22.9512 27.794 23.0672 27.9466 23.1842 28.0987C23.2319 28.1613 23.277 28.2306 23.3363 28.2823C23.4533 28.3853 23.5944 28.3527 23.7198 28.2865C24.0319 28.1214 24.3288 27.915 24.6278 27.7272C25.8328 26.9699 27.0011 26.1664 28.1635 25.3506Z" fill="#1D1D1B"/>
<path d="M25.1252 17.607C25.1546 17.5925 25.2028 17.6179 25.1913 17.6556C25.1792 17.6939 25.1672 17.7322 25.1551 17.771C24.9699 18.3571 24.7611 18.9666 24.4716 19.5077L24.4186 19.4911C24.6148 18.8703 24.875 18.2614 25.099 17.6499C25.0859 17.652 25.0712 17.6489 25.0617 17.637C25.0271 17.593 24.9746 17.5708 24.9217 17.5858L24.9049 17.5284C24.982 17.4916 25.0937 17.5216 25.1252 17.606C25.1247 17.606 25.1252 17.6065 25.1252 17.607Z" fill="#1D1D1B"/>
<path d="M24.9042 17.5279L24.921 17.5853C24.9174 17.5864 24.9137 17.5874 24.91 17.5884C24.9111 17.5931 24.9116 17.5988 24.91 17.6045C24.8319 17.9019 24.7012 18.1916 24.5816 18.4746C24.4589 18.7633 24.333 19.054 24.1719 19.3241C24.1719 19.3287 24.1709 19.3334 24.1683 19.3381C24.1609 19.3546 24.1509 19.3701 24.1394 19.3862L24.1111 19.4203C24.0502 19.4865 23.9626 19.5315 23.874 19.5072C23.8042 19.4881 23.7507 19.427 23.7507 19.3598C23.6951 19.427 23.5755 19.4322 23.5052 19.3862C23.426 19.3344 23.4076 19.2341 23.4527 19.1565L23.4963 19.1554C23.4789 19.2123 23.4973 19.2868 23.5503 19.3205C23.6111 19.3587 23.6657 19.3236 23.715 19.2884C23.7176 19.2863 23.7208 19.2853 23.7239 19.2843C24.0235 18.6966 24.2942 18.0944 24.4405 17.4518C24.4384 17.4498 24.4353 17.4477 24.4337 17.4436C24.3886 17.3603 24.291 17.337 24.2097 17.3748C24.2065 17.397 24.1919 17.4182 24.1714 17.4291L24.0906 17.4229C23.32 17.1156 22.5499 16.8052 21.7756 16.5067C20.3886 15.9712 18.9969 15.4492 17.5999 14.9402C16.2297 14.4404 14.8337 13.9857 13.4861 13.429C13.5648 13.6029 13.4646 13.8258 13.2925 13.9045C13.2951 13.9081 13.2967 13.9127 13.2993 13.9164C13.314 13.92 13.3292 13.9236 13.3434 13.9277L13.3292 13.981C13.4058 14.1988 13.2631 14.4611 13.0161 14.4637C13.0181 14.4658 13.0197 14.4684 13.0213 14.4709C13.0381 14.4751 13.0549 14.4797 13.0711 14.4839L13.057 14.5361C13.0884 14.6225 13.0759 14.7255 13.0276 14.8072C12.9426 14.951 12.7784 15.0002 12.6195 15.01C12.6252 15.0224 12.6315 15.0348 12.6363 15.0478C12.6368 15.0498 12.6373 15.0514 12.6368 15.0535C12.6357 15.0607 12.6268 15.0664 12.6195 15.0628C12.4747 14.9945 12.3766 14.8527 12.2696 14.7379C12.1431 14.6023 12.0178 14.4658 11.8924 14.3297C11.66 14.0778 11.393 13.8336 11.1915 13.5563C11.1753 13.5346 11.1879 13.5108 11.2073 13.4999C11.2036 13.4994 11.1999 13.4989 11.1963 13.4984C11.1679 13.4927 11.1727 13.4523 11.1999 13.4502C11.5572 13.4171 11.9249 13.4492 12.2843 13.4342C12.6588 13.4192 13.026 13.3618 13.3985 13.3281C13.4111 13.3271 13.421 13.3318 13.4284 13.3395C13.432 13.339 13.4357 13.339 13.4399 13.3406C14.1402 13.5553 14.8296 13.8103 15.5183 14.0607C15.5162 14.0514 15.5252 14.0395 15.5372 14.041C15.5383 14.041 15.5393 14.041 15.5398 14.0416C15.5351 14.0364 15.5299 14.0307 15.5252 14.025L15.5881 13.9841C15.6049 14.01 15.6253 14.0338 15.6495 14.056L15.6427 14.1057C15.6899 14.1228 15.7371 14.1398 15.7843 14.1569C16.152 14.2894 16.5198 14.4208 16.8875 14.5532C16.9762 14.5594 17.0653 14.5656 17.154 14.5718L17.1498 14.6474C17.6634 14.8315 18.1764 15.0167 18.6895 15.2035C18.744 15.2045 18.7991 15.2056 18.8542 15.2061L18.8563 15.2635C19.853 15.6267 20.8476 15.995 21.8359 16.3773C21.5873 15.9966 21.3727 15.5439 21.2636 15.0835L21.2552 15.0452C21.2101 14.8419 21.1849 14.6375 21.1875 14.4373L21.2442 14.4244C21.3187 14.7607 21.3696 15.0969 21.4829 15.4239C21.6051 15.7777 21.7777 16.1073 21.9786 16.4234C21.9807 16.427 21.9823 16.4306 21.9839 16.4342C22.7167 16.7188 23.4469 17.0095 24.1724 17.3127C24.1735 17.3132 24.174 17.3137 24.1751 17.3142C24.2747 17.2413 24.4395 17.2863 24.4961 17.3965C24.5092 17.4001 24.5202 17.4099 24.5255 17.4239C24.6446 17.351 24.8381 17.4224 24.8528 17.5682C24.8534 17.5677 24.8544 17.5677 24.8549 17.5672C24.856 17.5662 24.856 17.5646 24.857 17.5636C24.8717 17.5481 24.8869 17.5367 24.9042 17.5279ZM24.7736 17.5941C24.7605 17.4891 24.6236 17.427 24.5355 17.4932C24.5313 17.4969 24.526 17.4979 24.5213 17.4984C24.4751 17.8295 24.3513 18.1518 24.2165 18.4565C24.0927 18.7374 23.9668 19.0396 23.7832 19.2915C23.8 19.2905 23.8184 19.3039 23.8147 19.3241C23.8031 19.3856 23.8645 19.4358 23.9238 19.4369C24.0088 19.4379 24.0612 19.3556 24.109 19.2993C24.1142 19.293 24.1205 19.2899 24.1273 19.2884C24.2412 19.0137 24.3734 18.7467 24.4898 18.4725C24.6079 18.1953 24.7012 17.9066 24.8214 17.6303C24.7999 17.6329 24.7773 17.6215 24.7736 17.5941ZM13.2437 13.8558C13.4105 13.7762 13.4693 13.5785 13.3901 13.412C13.0344 13.4958 12.6551 13.5149 12.2905 13.5294C12.2365 13.532 12.1814 13.534 12.1264 13.5366C12.1856 13.6608 12.1625 13.815 12.0959 13.9329C12.0492 14.0147 11.9606 14.1135 11.8599 14.1435C11.9107 14.2014 11.9611 14.2588 12.0125 14.3142C12.1384 14.4503 12.2638 14.5863 12.3886 14.7239C12.46 14.8026 12.5413 14.876 12.5969 14.9655C12.7076 14.9402 12.8277 14.9024 12.9096 14.8248C13.0056 14.7332 13.0286 14.577 12.9222 14.4849C12.8959 14.4627 12.909 14.4301 12.9326 14.4187C12.9368 14.4114 12.9437 14.4058 12.9536 14.4052C13.2049 14.3928 13.3691 14.1393 13.2101 13.9293C13.2086 13.9293 13.2075 13.9298 13.206 13.9303C13.174 13.9345 13.1656 13.8848 13.1955 13.876C13.197 13.8755 13.1986 13.8745 13.2002 13.8745C13.2091 13.861 13.2269 13.8532 13.2437 13.8558ZM12.0492 13.5428C12.0487 13.5418 12.0487 13.5408 12.0487 13.5397C11.7843 13.549 11.5126 13.5506 11.2566 13.5077C11.4554 13.6784 11.6327 13.8838 11.8085 14.0855C11.894 14.0353 11.9716 13.9965 12.0262 13.8988C12.0912 13.7819 12.0886 13.666 12.0492 13.5428Z" fill="#1D1D1B"/>
<path d="M25.431 19.3178C25.4609 19.2972 25.4897 19.3416 25.4624 19.3639C25.3628 19.4446 25.2348 19.4813 25.1068 19.4741C25.0821 19.4725 25.079 19.4368 25.1047 19.4348C25.2269 19.4275 25.3313 19.3867 25.431 19.3178Z" fill="#1D1D1B"/>
<path d="M25.3859 19.5067C25.409 19.5021 25.4289 19.5315 25.4058 19.546C25.26 19.6366 25.0292 19.6117 24.8923 19.5165C24.8723 19.5026 24.8949 19.4757 24.9153 19.4834C24.9914 19.5119 25.0664 19.5367 25.1488 19.5414C25.2322 19.5466 25.3051 19.5228 25.3859 19.5067Z" fill="#1D1D1B"/>
<path d="M25.1687 19.8285H25.2416C25.2248 20.0996 25.165 20.3676 25.1471 20.6392C25.1283 20.9263 25.1309 21.215 25.155 21.5021C25.2012 22.0557 25.2741 22.7825 25.741 23.1586C25.838 23.0986 25.9351 23.0397 26.0327 22.9817C26.0557 22.9683 26.0778 22.9724 26.094 22.9848L26.1134 23.0448C26.1103 23.0541 26.104 23.0629 26.093 23.0702C25.3785 23.5632 24.6425 24.0257 23.9285 24.5198C23.566 24.7707 23.2057 25.0242 22.8479 25.2813C22.5142 25.5208 22.1922 25.8043 21.8354 26.0102L21.7678 25.9393C21.8491 25.8617 21.9367 25.7893 22.0269 25.7189C22.0222 25.7164 22.0175 25.7133 22.0127 25.7091C21.4499 25.1556 20.9127 24.5777 20.4033 23.9765C19.8992 23.3806 19.362 22.7629 18.988 22.0769C18.6554 21.4675 18.423 20.813 18.0794 20.2072C17.7295 19.5916 17.3292 19.0065 16.9216 18.4271C16.5408 17.8859 16.0671 17.3433 15.8158 16.7276C15.7644 16.6004 15.7271 16.4633 15.7093 16.3225C15.6946 16.3329 15.6747 16.3365 15.6542 16.3282C15.149 16.1332 14.6475 15.9294 14.146 15.7261C13.6466 15.5233 13.1341 15.3339 12.6525 15.0923C12.6378 15.0846 12.6347 15.0675 12.6399 15.054C12.6447 15.0421 12.6562 15.0333 12.6714 15.0385C13.1761 15.2015 13.665 15.4177 14.1576 15.6133C14.6717 15.8171 15.1873 16.0178 15.7004 16.2243C15.6873 16.0137 15.7193 15.8016 15.8142 15.6169C15.3342 15.4322 14.8579 15.2382 14.3795 15.0489C13.942 14.8756 13.4893 14.7255 13.0586 14.5362L13.0727 14.4839C13.5176 14.604 13.9498 14.7995 14.3774 14.9651C14.8705 15.1559 15.3657 15.3432 15.8572 15.5393C15.8572 15.5398 15.8578 15.5398 15.8583 15.5403C15.8976 15.4788 15.9448 15.4203 16.0004 15.367C16.1138 15.2594 16.2465 15.1953 16.3871 15.1658C15.8955 14.9563 15.4066 14.7421 14.9072 14.5486C14.3863 14.3474 13.8517 14.1808 13.3308 13.98L13.345 13.9268C13.8769 14.0628 14.3989 14.2635 14.9114 14.456C15.4722 14.6665 16.0345 14.888 16.5749 15.1461C16.8288 15.1451 17.0905 15.2403 17.2967 15.3882C17.304 15.3934 17.3103 15.3991 17.3177 15.4048C17.324 15.4007 17.3324 15.3991 17.3413 15.4022C17.3743 15.4136 17.4074 15.425 17.4404 15.4369L17.4221 15.4886C17.6057 15.6485 17.7568 15.844 17.8995 16.0396C17.9545 16.1156 18.0096 16.1927 18.0642 16.2687C18.0825 16.2755 18.1009 16.2822 18.1198 16.2889L18.1056 16.3262C18.2462 16.5228 18.3868 16.7199 18.5274 16.9164C18.5961 17.0127 18.6643 17.1099 18.7325 17.2082C18.7671 17.2191 18.8012 17.2305 18.8353 17.2424L18.8091 17.3189C19.1238 17.7726 19.4354 18.232 19.7848 18.6568C20.0004 18.9185 20.2528 19.1348 20.5754 19.2564C20.7952 19.3391 21.027 19.3878 21.2589 19.4297C21.2642 19.4229 21.2689 19.4162 21.2741 19.4095L21.3161 19.4395C21.3759 19.4498 21.4362 19.4602 21.4955 19.4705C21.5401 19.4783 21.5249 19.5425 21.4813 19.5378C20.8581 19.4736 20.2795 19.3485 19.8362 18.8803C19.6217 18.6532 19.448 18.3914 19.2681 18.1384C19.053 17.8368 18.8379 17.5352 18.6234 17.2336C18.6197 17.232 18.6155 17.23 18.6118 17.2279C18.5987 17.2217 18.5951 17.2087 18.5977 17.1974C18.4031 16.9237 18.209 16.6511 18.0143 16.3774C17.8223 16.1084 17.6372 15.8249 17.3901 15.6003C17.2679 15.4896 17.1236 15.4027 16.9725 15.3463C17.1456 15.5517 17.2521 15.8683 17.2773 16.1156C17.3014 16.3557 17.2107 16.5848 16.9888 16.7018C16.7286 16.8388 16.4217 16.7799 16.1862 16.6231C16.0996 16.5657 15.9307 16.4333 15.8294 16.2941C15.8892 16.7695 16.2244 17.2134 16.493 17.5967C16.8634 18.1249 17.2421 18.6475 17.5983 19.185C17.9498 19.7142 18.2782 20.2595 18.5515 20.8322C18.8395 21.4349 19.074 22.0417 19.4695 22.588C20.2522 23.6687 21.1461 24.676 22.0967 25.615C22.1077 25.6258 22.1135 25.6382 22.115 25.6512C22.3333 25.4882 22.5657 25.3382 22.7828 25.1825C23.1296 24.9326 23.479 24.6863 23.8299 24.4427C24.4264 24.0288 25.0244 23.6098 25.6403 23.2228C25.2017 22.8472 25.1141 22.1891 25.0569 21.6506C25.0218 21.3164 25.016 20.9796 25.0386 20.6444C25.0553 20.3738 25.0774 20.0872 25.1687 19.8285ZM16.9914 16.5916C17.4331 16.2915 17.0391 15.6169 16.8272 15.3029C16.4359 15.2103 16.0324 15.3334 15.8745 15.8006C15.8326 15.9247 15.8158 16.0473 15.8179 16.1679C15.8719 16.2558 15.9805 16.3422 16.034 16.3929C16.1227 16.4767 16.2218 16.5553 16.3325 16.6091C16.535 16.7074 16.7978 16.723 16.9914 16.5916Z" fill="#1D1D1B"/>
<path d="M24.0917 17.4229L24.1725 17.4291C24.1725 17.4327 24.173 17.4358 24.1719 17.4394C24.1006 17.7338 23.9883 18.0214 23.8797 18.3039C23.7827 18.5548 23.6961 18.8621 23.5356 19.0861L23.4622 19.0344C23.5062 18.8585 23.5917 18.6831 23.672 18.5118C23.6652 18.5139 23.6578 18.5144 23.6494 18.5118L23.7019 18.4461C23.7255 18.3944 23.7486 18.3427 23.769 18.2915C23.8226 18.1564 23.8713 18.0193 23.9206 17.8828L23.949 17.8036C23.9946 17.6753 24.0413 17.548 24.0917 17.4229Z" fill="#1D1D1B"/>
<path d="M25.1686 19.8285C25.0768 20.0872 25.0548 20.3738 25.0364 20.6449C25.0133 20.9801 25.0191 21.3169 25.0548 21.6511C25.1119 22.1896 25.1995 22.8477 25.6381 23.2233C25.0222 23.6102 24.4242 24.0293 23.8278 24.4431C23.4768 24.6868 23.1274 24.9331 22.7807 25.1829C22.564 25.3392 22.3311 25.4887 22.1129 25.6516C22.1113 25.6387 22.1055 25.6263 22.0945 25.6154C21.144 24.6765 20.2501 23.6692 19.4674 22.5885C19.0718 22.0422 18.8374 21.4353 18.5494 20.8326C18.276 20.26 17.9471 19.7147 17.5962 19.1854C17.24 18.6479 16.8612 18.1259 16.4909 17.5972C16.2223 17.2134 15.8865 16.7695 15.8273 16.2946C15.9285 16.4337 16.098 16.5667 16.184 16.6236C16.4195 16.7803 16.7269 16.8393 16.9866 16.7022C17.2085 16.5853 17.2993 16.3561 17.2751 16.1161C17.25 15.8688 17.1435 15.5522 16.9703 15.3468C17.1214 15.4032 17.2657 15.4906 17.3879 15.6008C17.635 15.8253 17.8202 16.1088 18.0122 16.3779C18.2068 16.651 18.4014 16.9242 18.5955 17.1978C18.5934 17.2092 18.5971 17.2227 18.6097 17.2284C18.6134 17.2304 18.6176 17.232 18.6212 17.234C18.8363 17.5357 19.0514 17.8373 19.2659 18.1389C19.4459 18.3918 19.6195 18.6536 19.8341 18.8807C20.2773 19.3489 20.856 19.4741 21.4792 19.5383C21.5227 19.5429 21.5379 19.4788 21.4933 19.471C21.4335 19.4607 21.3737 19.4503 21.3139 19.44C21.604 19.2398 21.7997 18.8797 21.9093 18.5564C22.4145 18.755 22.9202 18.9532 23.4249 19.1518C23.4343 19.1554 23.4438 19.157 23.4527 19.156C23.4076 19.2341 23.4264 19.3339 23.5051 19.3857C23.5754 19.4317 23.6956 19.4265 23.7506 19.3593C23.7506 19.4265 23.8047 19.4876 23.8739 19.5067C23.9626 19.5315 24.0497 19.486 24.111 19.4198C24.0974 19.5005 24.1341 19.5859 24.2102 19.6247C24.2889 19.665 24.4074 19.6505 24.4609 19.5755L24.4615 19.575C24.6634 19.6779 24.9304 19.814 25.1686 19.8285ZM20.4526 19.4984C20.4793 19.4881 20.4741 19.4405 20.4426 19.4462C20.3057 19.47 20.1945 19.455 20.088 19.3593C20.0749 19.3474 20.0523 19.3655 20.0638 19.38C20.1472 19.4881 20.3198 19.5517 20.4526 19.4984ZM20.3235 19.3825C20.3492 19.382 20.3524 19.3417 20.3267 19.3381C20.1845 19.3163 20.0649 19.277 19.9589 19.1756C19.9469 19.1642 19.9253 19.1818 19.9369 19.1953C20.0303 19.3024 20.1766 19.3862 20.3235 19.3825ZM22.0305 25.0676C22.0641 25.0914 22.0982 25.0422 22.062 25.0205C21.9728 24.9667 21.8831 24.9134 21.7939 24.8601C21.7787 24.8513 21.7625 24.8751 21.7766 24.8855C21.8611 24.9465 21.9455 25.007 22.0305 25.0676ZM21.9723 25.201C21.9938 25.2093 22.0184 25.1798 21.9964 25.1653C21.8516 25.0671 21.7242 24.977 21.615 24.8389C21.6014 24.8213 21.5736 24.8394 21.5857 24.858C21.6764 24.9988 21.8128 25.1374 21.9723 25.201ZM18.4659 18.0602C18.5048 18.0602 18.5105 17.9966 18.4712 17.993C18.1349 17.9614 17.8065 18.0949 17.5663 18.3241C17.5505 18.3391 17.5752 18.367 17.5925 18.353C17.8496 18.1394 18.1344 18.0587 18.4659 18.0602ZM18.4098 18.3194C18.4292 18.2925 18.3983 18.248 18.3678 18.2723C18.1449 18.4513 17.9644 18.5657 17.668 18.5848C17.636 18.5869 17.6402 18.6314 17.6707 18.6324C17.9319 18.6443 18.2535 18.5357 18.4098 18.3194Z" fill="#F3D1BB"/>
<path d="M23.9495 17.8027L23.9212 17.8818C21.7415 17.1291 19.5524 16.3676 17.421 15.4886L17.4394 15.4369C19.6169 16.2031 21.773 17.0313 23.9495 17.8027Z" fill="#1D1D1B"/>
<path d="M23.7025 18.4457L23.6501 18.5114C23.1753 18.381 22.71 18.187 22.2478 18.0173C21.7747 17.8435 21.3031 17.664 20.833 17.4808C19.9181 17.1239 18.9818 16.7695 18.1041 16.3272L18.1183 16.2899C19.0358 16.6236 19.9318 17.023 20.8419 17.3758C21.312 17.5584 21.7846 17.7364 22.2583 17.9102C22.7299 18.0835 23.2194 18.2289 23.6815 18.4245C23.692 18.4291 23.6983 18.4369 23.7025 18.4457Z" fill="#1D1D1B"/>
<path d="M23.4622 19.0339L23.5356 19.0856C23.5251 19.1007 23.5136 19.1151 23.5026 19.1296H23.502C23.4994 19.1338 23.4963 19.1369 23.4926 19.1395C23.4968 19.1431 23.4984 19.1493 23.4968 19.155L23.4532 19.156C23.4443 19.157 23.4349 19.1555 23.4254 19.1519C22.9203 18.9532 22.4146 18.7551 21.9099 18.5564C21.8003 18.8792 21.6046 19.2393 21.3145 19.44L21.2725 19.41C21.3795 19.2657 21.5013 19.1343 21.5972 18.9822C21.6896 18.8373 21.7583 18.6811 21.8186 18.5212C21.5495 18.4157 21.2804 18.3096 21.0113 18.2031C20.2784 17.9123 19.5262 17.6464 18.8075 17.32L18.8337 17.2434C19.575 17.4897 20.2989 17.8011 21.026 18.0825C21.8391 18.3971 22.6501 18.7168 23.4622 19.0339Z" fill="#1D1D1B"/>
<path d="M27.3305 31.913L27.351 31.9611C27.3452 31.9916 27.31 32.0149 27.278 31.9885C26.6223 31.4479 26.0238 30.8204 25.4352 30.2104C25.1461 29.9109 24.8634 29.6062 24.5853 29.2968C24.321 29.0019 24.0151 28.7076 23.7985 28.3749L23.8541 28.3439C24.1547 28.6181 24.4065 28.9585 24.6808 29.257C24.9604 29.5612 25.2447 29.8617 25.5322 30.1592C26.1145 30.7619 26.7398 31.3201 27.3305 31.913Z" fill="#1D1D1B"/>
<path d="M21.2264 14.3261C21.2888 14.3142 21.3229 14.4058 21.2589 14.4213C21.2547 14.4224 21.2511 14.4234 21.2469 14.4239L21.1902 14.4368C19.8976 14.7385 18.477 14.83 17.1525 14.6469L17.1567 14.5714C17.7788 14.6122 18.3994 14.6402 19.0242 14.6117C19.7681 14.577 20.4962 14.4674 21.2264 14.3261Z" fill="#1D1D1B"/>
<path d="M21.1898 14.4363C21.1871 14.6365 21.2123 14.8408 21.2574 15.0442C21.2506 15.0328 21.2396 15.024 21.2244 15.0224C21.0649 15.0064 20.8624 15.0767 20.7029 15.099C20.4721 15.1311 20.2403 15.1554 20.0079 15.1725C19.6244 15.2014 19.2404 15.2102 18.8559 15.205C18.8008 15.2045 18.7457 15.2035 18.6912 15.2025C18.1781 15.0157 17.6651 14.831 17.1515 14.6463C18.4766 14.8295 19.8972 14.7379 21.1898 14.4363Z" fill="#F3D1BB"/>
<path d="M21.2573 15.0441L21.2657 15.0824C21.2662 15.0834 21.2657 15.0839 21.2662 15.0844C21.2657 15.0901 21.2647 15.0958 21.2641 15.101C21.2605 15.1279 21.229 15.1455 21.2033 15.1403L21.1933 15.1382C21.1865 15.1372 21.1813 15.1346 21.1765 15.1315C20.7621 15.1791 20.3561 15.2567 19.9369 15.2769C19.5765 15.2939 19.2177 15.2893 18.8589 15.2629L18.8568 15.2055C19.2408 15.2107 19.6253 15.2019 20.0088 15.1729C20.2412 15.1558 20.4731 15.1315 20.7039 15.0994C20.8628 15.0772 21.0658 15.0063 21.2253 15.0229C21.2395 15.0234 21.2505 15.0327 21.2573 15.0441Z" fill="#1D1D1B"/>
<path d="M21.2663 15.0845C21.2663 15.0839 21.2663 15.0834 21.2657 15.0824C21.3748 15.5428 21.5894 15.996 21.8381 16.3763C20.8492 15.9945 19.8551 15.6256 18.8584 15.2624C19.2172 15.2888 19.576 15.2935 19.9364 15.2764C20.3561 15.2562 20.7621 15.1791 21.176 15.131C21.1807 15.1341 21.1865 15.1367 21.1928 15.1378L21.2028 15.1398C21.2285 15.145 21.2605 15.1274 21.2636 15.1005C21.2647 15.0953 21.2657 15.0902 21.2663 15.0845ZM21.2154 15.9645C21.2426 15.9732 21.2584 15.9282 21.2316 15.9174C21.1215 15.8724 21.004 15.8424 20.8901 15.8062C20.8733 15.801 20.8639 15.8284 20.8802 15.8346C20.9914 15.8786 21.101 15.9293 21.2154 15.9645ZM21.0821 15.997C21.1005 16.0053 21.1215 15.9795 21.1026 15.9665C20.9982 15.8951 20.8592 15.8646 20.7343 15.8548C20.717 15.8537 20.7107 15.8796 20.7286 15.8817C20.8581 15.8972 20.9646 15.9458 21.0821 15.997Z" fill="#F3D1BB"/>
<path d="M21.2316 15.9174C21.2578 15.9283 21.2426 15.9728 21.2153 15.9645C21.1015 15.9293 20.9913 15.8786 20.8806 15.8346C20.8644 15.8284 20.8738 15.801 20.8906 15.8062C21.0039 15.8424 21.1214 15.8729 21.2316 15.9174Z" fill="#1D1D1B"/>
<path d="M21.1027 15.9666C21.1216 15.9796 21.1006 16.0054 21.0822 15.9972C20.9647 15.9459 20.8582 15.8973 20.7292 15.8818C20.7113 15.8797 20.7176 15.8539 20.735 15.8549C20.8593 15.8647 20.9983 15.8952 21.1027 15.9666Z" fill="#1D1D1B"/>
<path d="M23.7151 26.7479C23.7188 26.7147 23.7696 26.7209 23.7723 26.752C23.7807 26.8565 23.724 26.9667 23.6521 27.0386C23.6322 27.0583 23.6007 27.0314 23.6186 27.0101C23.6857 26.9305 23.7051 26.8472 23.7151 26.7479Z" fill="#1D1D1B"/>
<path d="M23.5761 26.781C23.627 26.8969 23.5404 27.0521 23.4203 27.0837C23.4045 27.0878 23.3909 27.0656 23.4066 27.0568C23.5116 26.9999 23.5462 26.9031 23.5257 26.7903C23.5205 26.7603 23.5656 26.7567 23.5761 26.781Z" fill="#1D1D1B"/>
<path d="M23.0462 26.4205C23.2329 26.3475 23.4611 26.4417 23.5146 26.6403C23.5603 26.8085 23.4706 26.9983 23.298 27.0495C23.1348 27.0982 22.9365 27.0185 22.8783 26.856C22.8258 26.7096 22.8935 26.5472 23.0252 26.4737C23.0163 26.4551 23.0205 26.4308 23.0462 26.4205ZM23.4265 26.6693C23.3882 26.5255 23.235 26.4624 23.097 26.4872C22.8521 26.6289 22.9349 27.0309 23.2476 26.9693C23.3835 26.943 23.4611 26.7997 23.4265 26.6693Z" fill="#1D1D1B"/>
<path d="M23.3232 26.691C23.362 26.6925 23.3667 26.7494 23.3268 26.7515C23.2875 26.7531 23.2476 26.7526 23.2083 26.751C23.2104 26.7929 23.2156 26.8333 23.2193 26.8757C23.2214 26.899 23.1878 26.9036 23.18 26.8829C23.1648 26.8426 23.1532 26.796 23.1474 26.7479C23.1196 26.7469 23.0918 26.7453 23.064 26.7438C23.0373 26.7432 23.0341 26.7039 23.0619 26.7024C23.0892 26.7008 23.1165 26.6987 23.1432 26.6972C23.1417 26.6486 23.1448 26.601 23.1564 26.5591C23.1653 26.526 23.2219 26.526 23.2204 26.5637C23.2188 26.6072 23.2114 26.6496 23.2088 26.6925C23.2466 26.6915 23.2854 26.69 23.3232 26.691Z" fill="#1D1D1B"/>
<path d="M20.4426 19.4462C20.4741 19.4405 20.4793 19.4881 20.4526 19.4985C20.3204 19.5517 20.1478 19.4881 20.0644 19.38C20.0528 19.3655 20.0749 19.3469 20.0885 19.3593C20.194 19.4545 20.3052 19.47 20.4426 19.4462Z" fill="#1D1D1B"/>
<path d="M20.3267 19.3381C20.3524 19.3422 20.3493 19.3826 20.3236 19.3826C20.1762 19.3862 20.0303 19.3019 19.937 19.1948C19.9254 19.1818 19.9475 19.1637 19.959 19.1751C20.065 19.277 20.1846 19.3163 20.3267 19.3381Z" fill="#1D1D1B"/>
<path d="M19.6038 17.2284C19.6358 17.2341 19.6243 17.2785 19.5933 17.2765C19.4606 17.2661 19.3053 17.2191 19.1925 17.1487C19.18 17.1409 19.1852 17.1171 19.2015 17.1223C19.2676 17.1435 19.331 17.1704 19.3982 17.188C19.4664 17.2066 19.5351 17.2154 19.6038 17.2284Z" fill="#1D1D1B"/>
<path d="M19.5036 17.0939C19.5282 17.1058 19.5135 17.1394 19.4889 17.1363C19.331 17.1166 19.1663 17.024 19.033 16.9444C19.0115 16.9314 19.0273 16.8978 19.0503 16.9092C19.1238 16.9454 19.1983 16.9785 19.2743 17.009C19.3494 17.039 19.4312 17.0582 19.5036 17.0939Z" fill="#1D1D1B"/>
<path d="M22.062 25.0206C22.0982 25.0423 22.0641 25.0914 22.0306 25.0676C21.9456 25.0071 21.8611 24.9466 21.7767 24.8855C21.762 24.8752 21.7788 24.8514 21.794 24.8602C21.8832 24.9135 21.9729 24.9668 22.062 25.0206Z" fill="#1D1D1B"/>
<path d="M21.9965 25.1654C22.0185 25.1798 21.9933 25.2093 21.9723 25.201C21.8129 25.1379 21.6765 24.9988 21.5857 24.8586C21.5737 24.8399 21.6015 24.8218 21.6151 24.8394C21.7242 24.977 21.8517 25.0671 21.9965 25.1654Z" fill="#1D1D1B"/>
<path d="M16.8566 13.0389C16.8566 13.0405 16.8566 13.042 16.8571 13.0436C16.9762 13.4332 17.035 13.8294 16.5618 13.9888C16.2659 14.0881 15.958 14.0912 15.6522 14.055C15.628 14.0327 15.6076 14.0089 15.5908 13.9831C15.4848 13.8196 15.5247 13.5899 15.6506 13.4394C15.8022 13.2583 16.0566 13.1921 16.2796 13.146C16.4705 13.1057 16.6636 13.071 16.8566 13.0389ZM16.8094 13.6478C16.8199 13.6235 16.7842 13.6054 16.7722 13.6292C16.7192 13.7342 16.6284 13.8087 16.5099 13.8279C16.4894 13.831 16.4899 13.8625 16.5114 13.86C16.6415 13.845 16.7575 13.7684 16.8094 13.6478Z" fill="#F3D1BB"/>
<path d="M18.4713 17.993C18.5106 17.9966 18.5049 18.0602 18.466 18.0602C18.134 18.0587 17.8496 18.1394 17.5926 18.3525C17.5758 18.367 17.5506 18.3386 17.5664 18.3236C17.8066 18.0949 18.135 17.9614 18.4713 17.993Z" fill="#1D1D1B"/>
<path d="M18.3684 18.2724C18.3988 18.2481 18.4298 18.2926 18.4104 18.3195C18.2541 18.5357 17.932 18.6444 17.6718 18.6325C17.6413 18.6314 17.6371 18.5869 17.6691 18.5849C17.965 18.5657 18.1455 18.4514 18.3684 18.2724Z" fill="#1D1D1B"/>
<path d="M16.7716 13.6292C16.7837 13.6054 16.8194 13.6235 16.8089 13.6478C16.7569 13.7684 16.641 13.8449 16.5109 13.8599C16.4894 13.8625 16.4889 13.831 16.5093 13.8279C16.6279 13.8082 16.7187 13.7337 16.7716 13.6292Z" fill="#1D1D1B"/>
<path d="M16.8273 15.3029C17.0392 15.6169 17.4326 16.2915 16.9915 16.5916C16.7984 16.723 16.5351 16.7075 16.3321 16.6092C16.2219 16.5554 16.1222 16.4767 16.0336 16.3929C15.9801 16.3427 15.8715 16.2558 15.8174 16.1679C15.8153 16.0468 15.8321 15.9242 15.8741 15.8006C16.0325 15.3334 16.4359 15.2098 16.8273 15.3029ZM16.9238 15.7597C16.9369 15.783 16.9762 15.7638 16.9663 15.739C16.9175 15.6195 16.854 15.501 16.7858 15.3914C16.778 15.3779 16.7559 15.3888 16.7612 15.4027C16.8052 15.5248 16.8598 15.6474 16.9238 15.7597ZM16.8949 15.8585C16.9149 15.8828 16.9511 15.859 16.9359 15.8311C16.874 15.7173 16.7863 15.6071 16.7035 15.5067C16.693 15.4938 16.6746 15.5062 16.6825 15.5207C16.7439 15.635 16.8126 15.7576 16.8949 15.8585Z" fill="#F3D1BB"/>
<path d="M16.9662 15.7389C16.9761 15.7637 16.9368 15.7829 16.9237 15.7596C16.8597 15.6473 16.8051 15.5247 16.7611 15.4031C16.7558 15.3892 16.7773 15.3783 16.7857 15.3918C16.8539 15.5009 16.9174 15.6199 16.9662 15.7389Z" fill="#1D1D1B"/>
<path d="M16.9358 15.831C16.951 15.859 16.9148 15.8828 16.8949 15.8585C16.8125 15.7576 16.7438 15.635 16.6824 15.5206C16.6746 15.5067 16.6929 15.4937 16.7034 15.5067C16.7863 15.607 16.8734 15.7172 16.9358 15.831Z" fill="#1D1D1B"/>
<path d="M15.8541 14.5221C15.8898 14.5273 15.8824 14.5785 15.8494 14.5816C15.7082 14.5946 15.5425 14.5092 15.4554 14.4031C15.4418 14.3861 15.4675 14.3669 15.4832 14.3788C15.5367 14.4218 15.5907 14.4606 15.6558 14.4854C15.7208 14.5102 15.7854 14.5133 15.8541 14.5221Z" fill="#1D1D1B"/>
<path d="M15.6437 14.5817C15.6621 14.5967 15.6416 14.6205 15.6222 14.6132C15.5514 14.5874 15.4853 14.546 15.4208 14.5077C15.3615 14.4725 15.2996 14.4389 15.2461 14.3965C15.2314 14.3851 15.2477 14.3654 15.2634 14.3711C15.3337 14.3975 15.4014 14.4363 15.467 14.4725C15.5273 14.5062 15.5902 14.5382 15.6437 14.5817Z" fill="#1D1D1B"/>
<path d="M12.9233 13.6607C12.9505 13.6571 12.9595 13.7026 12.9327 13.7078C12.8031 13.7332 12.6709 13.7482 12.5403 13.7668C12.5151 13.7704 12.5141 13.7332 12.5382 13.7285C12.6662 13.7052 12.7942 13.6778 12.9233 13.6607Z" fill="#1D1D1B"/>
<path d="M12.8614 13.5599C12.8949 13.5599 12.8986 13.6095 12.864 13.6116C12.6841 13.6225 12.5078 13.6354 12.33 13.667C12.309 13.6706 12.3022 13.6354 12.3226 13.6307C12.4978 13.5878 12.6814 13.5583 12.8614 13.5599Z" fill="#1D1D1B"/>
</svg>
